<?xml version="1.0" encoding="UTF-8" standalone="no"?>
<svg
   version="1.1"
   width="1227.0977"
   height="1227.0977"
   id="svg59"
   sodipodi:docname="Ceu.svg"
   xmlns:inkscape="http://www.inkscape.org/namespaces/inkscape"
   xmlns:sodipodi="http://sodipodi.sourceforge.net/DTD/sodipodi-0.dtd"
   xmlns="http://www.w3.org/2000/svg"
   xmlns:svg="http://www.w3.org/2000/svg">
  <sodipodi:namedview
     id="namedview1"
     pagecolor="#ffffff"
     bordercolor="#000000"
     borderopacity="0.25"
     inkscape:showpageshadow="2"
     inkscape:pageopacity="0.0"
     inkscape:pagecheckerboard="0"
     inkscape:deskcolor="#d1d1d1">
    <inkscape:page
       x="0"
       y="0"
       width="1227.0977"
       height="1227.0977"
       id="page2"
       margin="0"
       bleed="0" />
  </sodipodi:namedview>
  <defs
     id="defs59" />
  <circle
     style="fill:#596f99;stroke-width:1.22642"
     id="path5"
     cx="613.54877"
     cy="613.54877"
     r="613.54877" />
  <path
     d="m 1017.5321,80.32352 c 164.34,0 328.68,0 498,0 0.6057,212.9435 0.6057,212.9435 0.7225,294.43377 0.031,21.30962 0.062,42.61924 0.095,63.92885 0,2.57764 0.01,5.15527 0.012,7.73291 0.064,41.11005 0.1766,82.2198 0.3145,123.32966 0.1414,42.24282 0.2338,84.48547 0.2643,126.72852 0,5.96329 0.01,11.92658 0.014,17.88987 0,1.76053 0,1.76053 0,3.55663 0.018,18.91128 0.087,37.82203 0.1762,56.73309 0.088,19.00122 0.1221,38.00192 0.1001,57.00334 -0.011,11.29664 0.019,22.59136 0.1094,33.88765 0.056,7.5414 0.058,15.08154 0.015,22.62302 -0.023,4.30104 -0.022,8.59845 0.046,12.89909 0.3667,24.86952 0.3667,24.86952 -3.3308,30.45562 -3.9786,3.81111 -8.3523,5.23521 -13.5425,6.79802 -2.11,1.1568 -4.1964,2.3594 -6.2382,3.6328 -2.024,1.1653 -4.0488,2.3294 -6.0743,3.4922 -2.2643,1.3033 -4.5286,2.6067 -6.7929,3.9101 -1.712,0.9845 -1.712,0.9845 -3.4585,1.9888 -5.5224,3.1759 -11.0422,6.3564 -16.5611,9.5386 -1.6151,0.9312 -1.6151,0.9312 -3.2629,1.8813 -7.2162,4.1644 -14.4182,8.3529 -21.612,12.5562 -13.7305,8.0226 -27.5107,15.9585 -41.291,23.8955 -11.5858,6.67404 -23.1645,13.35914 -34.709,20.10454 -11.5473,6.747 -23.129,13.4333 -34.7177,20.1088 -5.4289,3.128 -10.8555,6.2597 -16.2823,9.3912 -6.5223,3.7636 -13.0451,7.5264 -19.5703,11.2851 -10.492,6.0454 -20.9745,12.106 -31.4297,18.2149 -13.7305,8.0227 -27.5107,15.9586 -41.291,23.8955 -11.5858,6.6741 -23.1645,13.3591 -34.709,20.1045 -13.7305,8.0227 -27.5107,15.9586 -41.291,23.8955 -11.5858,6.6741 -23.1645,13.3591 -34.709,20.1045 -13.7305,8.0227 -27.5107,15.9586 -41.291,23.8955 -11.5858,6.6741 -23.1645,13.3591 -34.709,20.1045 -13.7305,8.0227 -27.5107,15.9586 -41.29102,23.8955 -11.5858,6.6741 -23.1645,13.3591 -34.70896,20.1045 -13.73055,8.0227 -27.51078,15.9586 -41.29102,23.8955 -11.5858,6.6741 -23.16451,13.3591 -34.70898,20.1045 -11.5473,6.747 -23.12902,13.4334 -34.71777,20.1089 -5.42883,3.1279 -10.85545,6.2596 -16.28223,9.3911 -6.52233,3.7636 -13.04514,7.5264 -19.57031,11.2852 -10.49201,6.0454 -20.97451,12.1059 -31.42969,18.2148 -13.73055,8.0227 -27.51078,15.9586 -41.29102,23.8955 -11.5858,6.6741 -23.16451,13.3591 -34.70898,20.1045 -13.73055,8.0227 -27.51078,15.9586 -41.29102,23.8955 -11.5858,6.6741 -23.16451,13.3591 -34.70898,20.1045 -13.73055,8.0227 -27.51078,15.9586 -41.29102,23.8955 -11.66626,6.7204 -23.32719,13.4496 -34.95898,20.2295 -0.85997,0.5009 -1.71993,1.0018 -2.60596,1.5178 -10.40754,6.0751 -20.76879,12.2264 -31.14404,18.3572 -30.03,0 -60.06,0 -91,0 0,-85.8 0,-171.6 0,-260 10.23,2.64 20.46,5.28 31,8 6.99242,1.7181 13.97837,3.413 21,5 0.90637,0.2072 1.81274,0.4144 2.74658,0.6279 23.02013,5.212 46.31517,8.0252 69.75342,10.5596 0.76999,0.085 1.53999,0.1695 2.33331,0.2569 19.71323,2.1526 39.40771,2.7641 59.22919,2.7431 0.97784,-3e-4 1.95569,-5e-4 2.96317,-8e-4 14.96481,-0.019 29.78293,-0.4431 44.68869,-1.8747 3.45914,-0.3285 6.92037,-0.6162 10.3833,-0.9018 36.83868,-3.1901 73.9741,-9.8692 109.36181,-20.6526 3.00372,-0.8957 6.0219,-1.7338 9.04053,-2.5779 8.37107,-2.3857 16.62255,-5.1024 24.875,-7.8672 0.78636,-0.2629 1.57272,-0.5259 2.3829,-0.7968 74.41822,-24.9269 142.15118,-62.3247 203.24208,-111.5157 0.9887,-0.7915 1.9775,-1.583 2.9961,-2.3984 5.6624,-4.5843 11.107,-9.3493 16.4688,-14.2813 2.0684,-1.8931 4.1592,-3.7428 6.2851,-5.5703 9.7549,-8.5083 19.0829,-17.4911 28.25,-26.625 1.0402,-1.0333 1.0402,-1.0333 2.1014,-2.0874 3.9118,-3.9237 7.6363,-7.9541 11.2551,-12.149 2.4364,-2.7997 4.98,-5.4944 7.5185,-8.2011 4.4073,-4.7425 8.6157,-9.588 12.668,-14.6407 1.8565,-2.3021 3.732,-4.5787 5.6328,-6.8437 8.7257,-10.4218 16.9063,-21.157 24.8242,-32.2031 0.5775,-0.8031 1.155,-1.6062 1.75,-2.4336 48.0637,-67.05323 83.4935,-142.8002 104.6939,-222.4947 0.5706,-2.12582 1.1617,-4.24524 1.7554,-6.36475 5.4807,-19.83588 9.5116,-40.10134 12.4589,-60.46289 0.3975,-2.60984 0.8471,-5.20888 1.295,-7.81055 1.1018,-6.57564 1.9844,-13.17339 2.7968,-19.79004 0.2422,-1.95509 0.4959,-3.90873 0.75,-5.8623 3.0278,-24.03223 3.8413,-48.14027 3.7608,-72.33228 -0.011,-3.45473 0,-6.90916 0.01,-10.36389 0.05,-17.77161 -0.6765,-35.37932 -2.2678,-53.08508 -0.1469,-1.71432 -0.2934,-3.42867 -0.4394,-5.14307 -2.3658,-27.21068 -6.4884,-54.23505 -12.5606,-80.85693 -0.3119,-1.38695 -0.6234,-2.774 -0.9345,-4.16113 -9.3304,-41.48567 -21.9502,-81.87904 -39.0655,-120.83887 -0.4399,-1.00531 -0.8798,-2.01062 -1.333,-3.04639 -29.3028,-66.49828 -68.753,-127.22471 -117.667,-180.95361 -0.784,-0.86891 -1.5681,-1.73782 -2.3759,-2.63306 -6.5244,-7.18881 -13.2456,-14.1448 -20.1228,-20.99609 -1.7015,-1.69605 -3.3975,-3.39745 -5.0931,-5.09937 -5.6353,-5.63873 -11.3295,-11.10687 -17.4082,-16.27148 -1.6076,-1.45446 -3.2124,-2.91221 -4.8125,-4.375 -5.2429,-4.73403 -10.6928,-9.18804 -16.1875,-13.625 -2.0279,-1.64112 -4.0264,-3.29315 -6,-5 0,-0.33 0,-0.66 0,-1 z"
     fill="#fcc200"
     id="path3"
     style="display:none" />
  <path
     d="m 1515.5321,985.32356 c 0,172.92004 0,345.84004 0,524.00004 -302.28,0 -604.55998,0 -915.99998,0 3.49234,-2.7939 6.29436,-4.8657 10.11328,-6.961 0.98807,-0.5465 1.97613,-1.0931 2.99414,-1.6562 1.05768,-0.5801 2.11535,-1.1602 3.20508,-1.7578 8.6234,-4.7758 17.19016,-9.6284 25.6875,-14.625 9.14875,-5.3727 18.37405,-10.5908 27.64453,-15.75 7.16901,-3.9997 14.2764,-8.0935 21.35547,-12.25 9.14913,-5.372 18.37403,-10.5908 27.64453,-15.75 7.16901,-3.9997 14.2764,-8.0935 21.35547,-12.25 8.11419,-4.7643 16.27809,-9.4242 24.5,-14 9.15723,-5.0984 18.23693,-10.3131 27.27832,-15.6138 7.62967,-4.469 15.29145,-8.8799 22.97168,-13.2612 0.58432,-0.3334 1.16864,-0.6668 1.77066,-1.0102 2.97126,-1.6949 5.94297,-3.3889 8.91489,-5.0826 5.27538,-3.007 10.54679,-6.0208 15.81848,-9.0343 2.91516,-1.6662 5.83058,-3.3321 8.74597,-4.9979 1.16667,-0.6667 2.33333,-1.3334 3.5,-2 2.33333,-1.3334 4.66667,-2.6667 7,-4 0.57749,-0.33 1.15498,-0.66 1.74997,-1 1.16677,-0.6668 2.33353,-1.3335 3.5003,-2.0002 2.91517,-1.6658 5.8303,-3.3316 8.74534,-4.9976 5.26781,-3.0106 10.53593,-6.0207 15.80567,-9.0279 2.94146,-1.6786 5.88263,-3.3576 8.82372,-5.0368 0.57973,-0.331 1.15945,-0.6619 1.75674,-1.0029 8.45129,-4.8257 16.88266,-9.685 25.30576,-14.5596 8.44046,-4.8837 16.91866,-9.692 25.4375,-14.4375 9.11476,-5.0788 18.15256,-10.2745 27.15376,-15.5516 7.6295,-4.469 15.2912,-8.8797 22.97122,-13.2609 0.5844,-0.3334 1.1687,-0.6668 1.7707,-1.0102 2.9713,-1.6949 5.943,-3.3889 8.9149,-5.0826 5.2754,-3.007 10.5468,-6.0208 15.8185,-9.0343 2.9151,-1.6662 5.8305,-3.3321 8.7459,-4.9979 1.1667,-0.6667 2.3334,-1.3334 3.5,-2 2.3334,-1.3334 4.6667,-2.6667 7,-4 0.5775,-0.33 1.155,-0.66 1.75,-1 1.1668,-0.6668 2.3335,-1.3335 3.5003,-2.0002 2.9152,-1.6658 5.8303,-3.3316 8.7453,-4.9976 5.2679,-3.0106 10.536,-6.0207 15.8057,-9.0279 2.9415,-1.6786 5.8826,-3.3576 8.8237,-5.0368 0.5798,-0.331 1.1595,-0.6619 1.7568,-1.0029 8.4513,-4.8257 16.8826,-9.685 25.3057,-14.5596 8.4405,-4.8837 16.9187,-9.692 25.4375,-14.4375 9.1148,-5.0788 18.1526,-10.2745 27.1538,-15.5516 7.6295,-4.469 15.2912,-8.8797 22.9712,-13.2609 0.5844,-0.3334 1.1687,-0.6668 1.7707,-1.0102 2.9713,-1.6949 5.943,-3.3889 8.9149,-5.0826 5.2754,-3.007 10.5468,-6.0208 15.8185,-9.0343 2.9151,-1.6662 5.8305,-3.3321 8.7459,-4.9979 1.1667,-0.6667 2.3334,-1.3334 3.5,-2 11.1,-6.3429 22.2,-12.6858 33.3,-19.0286 0.5982,-0.3419 1.1965,-0.6837 1.8128,-1.0359 29.8286,-17.0449 29.8286,-17.0449 32.3824,-18.5041 1.6686,-0.9536 3.3372,-1.9072 5.0058,-2.8609 4.8672,-2.7817 9.7354,-5.5616 14.6045,-8.3401 11.4794,-6.5518 22.9499,-13.1181 34.3945,-19.7304 12.466,-7.2022 24.9636,-14.3483 37.4678,-21.4839 5.2627,-3.0035 10.5234,-6.0104 15.7842,-9.0171 2.916,-1.6665 5.832,-3.3328 8.748,-4.999 1.1667,-0.6667 2.3334,-1.3334 3.5,-2 11.1,-6.3429 22.2,-12.6858 33.3,-19.0286 1.2099,-0.6913 2.4197,-1.3827 3.6296,-2.074 1.2085,-0.6906 2.4171,-1.3812 3.6257,-2.0718 2.9724,-1.6986 5.9448,-3.3971 8.9171,-5.0959 5.2609,-3.0066 10.5222,-6.0124 15.7855,-9.0149 0.891,-0.5085 1.7821,-1.0171 2.7001,-1.541 1.7075,-0.9744 3.4152,-1.9484 5.1231,-2.9219 4.3017,-2.45574 8.5904,-4.93174 12.8642,-7.43554 0.8804,-0.5146 1.7607,-1.0292 2.6678,-1.5594 1.6775,-0.982 3.3529,-1.9676 5.0259,-2.9575 0.7417,-0.434 1.4835,-0.868 2.2478,-1.3152 0.6518,-0.3844 1.3037,-0.7689 1.9753,-1.165 1.6379,-0.8193 1.6379,-0.8193 3.6379,-0.8193 z"
     fill="#567371"
     id="path4"
     style="display:none" />
  <path
     d="m 734.53212,353.32352 c 3.40967,4.02748 6.08704,8.28026 8.75,12.8125 0.41121,0.69287 0.82242,1.38574 1.24609,2.09961 1.00469,1.69396 2.00478,3.39065 3.00391,5.08789 0.57967,-0.0909 1.15935,-0.18176 1.75659,-0.27539 2.64304,-0.41211 5.28695,-0.81841 7.93091,-1.22461 0.91201,-0.14309 1.82402,-0.28617 2.76367,-0.43359 0.88623,-0.13536 1.77246,-0.27071 2.68555,-0.41016 0.8117,-0.12568 1.62341,-0.25137 2.45971,-0.38086 2.4889,-0.28517 4.90063,-0.32214 7.40357,-0.27539 -4.14868,4.99969 -8.50962,9.43793 -13.33985,13.78906 -1.94486,2.06575 -1.94486,2.06575 -1.40673,4.54517 0.76194,2.72062 1.7498,5.01387 3.03173,7.52905 0.44795,0.88623 0.8959,1.77246 1.35743,2.68555 0.70286,1.36802 0.70286,1.36802 1.41992,2.76367 0.47244,0.93135 0.94488,1.86269 1.43164,2.82227 1.16323,2.29122 2.33199,4.57944 3.50586,6.86523 -3.2982,0 -4.20237,-0.50929 -6.94141,-2.1875 -0.7483,-0.45117 -1.4966,-0.90234 -2.26758,-1.36719 -0.77666,-0.47695 -1.55332,-0.9539 -2.35351,-1.44531 -1.54059,-0.9414 -3.08346,-1.8791 -4.62891,-2.8125 -1.02396,-0.62842 -1.02396,-0.62842 -2.0686,-1.26953 -1.70693,-1.07351 -1.70693,-1.07351 -3.73999,-0.91797 -1.84457,2.19506 -3.59098,4.399 -5.3125,6.6875 -0.95108,1.25645 -1.90547,2.5104 -2.86328,3.76172 -0.42193,0.56034 -0.84386,1.12068 -1.27857,1.698 -2.02355,2.42563 -4.31199,4.61912 -6.54565,6.85278 0,-8.25 0,-16.5 0,-25 -2.97,-0.66 -5.94,-1.32 -9,-2 -2.51564,-0.78488 -5.01781,-1.61504 -7.5,-2.5 -1.20656,-0.42281 -2.41313,-0.84563 -3.65625,-1.28125 -2.84375,-1.21875 -2.84375,-1.21875 -3.84375,-3.21875 0.67055,-0.11142 1.34111,-0.22285 2.03198,-0.33765 7.36438,-1.39137 14.98382,-2.93755 20.96802,-7.66235 4.18253,-7.4978 4.63419,-16.56263 5,-25 z"
     fill="#fbfbfc"
     id="path33" />
  <path
     d="m 111.53212,639.32352 c 5.625,5.625 5.625,5.625 8.11328,8.76953 0.52529,0.66065 1.05059,1.32129 1.5918,2.00195 0.53044,0.67354 1.06089,1.34707 1.60742,2.04102 0.54978,0.69287 1.09957,1.38574 1.66601,2.09961 1.34331,1.69374 2.68279,3.3905 4.02149,5.08789 1.09699,-0.42152 2.19398,-0.84305 3.32422,-1.27734 1.45435,-0.5536 2.90878,-1.10697 4.36328,-1.66016 1.08184,-0.41669 1.08184,-0.41669 2.18554,-0.8418 3.68968,-1.39837 7.20804,-2.61006 11.12696,-3.2207 -2.97921,6.19571 -6.16572,12.00062 -10.0586,17.67578 -1.18698,2.28487 -1.18698,2.28487 -0.39062,4.63672 2.2885,4.2439 4.80315,8.32998 7.34765,12.42383 3.10157,5.06018 3.10157,5.06018 3.10157,7.26367 -8.8143,-2.25397 -17.39631,-5.06244 -26,-8 -0.2359,0.66387 -0.4718,1.32773 -0.71485,2.01172 -1.63796,3.80865 -3.70254,7.25948 -5.84765,10.80078 -0.41186,0.69287 -0.82371,1.38574 -1.24805,2.09961 -1.03232,1.7149 -2.10715,3.40408 -3.18945,5.08789 -0.33,0 -0.66,0 -1,0 0,-8.25 0,-16.5 0,-25 -2.97,-0.66 -5.94,-1.32 -9,-2 -2.691102,-0.7951 -5.342462,-1.61056 -8.000002,-2.5 -0.66645,-0.2127 -1.33289,-0.42539 -2.01953,-0.64453 -1.6814,-0.55818 -3.33441,-1.2004 -4.98047,-1.85547 -0.33,-0.66 -0.66,-1.32 -1,-2 7.92,-2.64 15.840002,-5.28 24.000002,-8 0.33,-8.25 0.66,-16.5 1,-25 z"
     fill="#fafafc"
     id="path34" />
  <path
     d="m 217.53212,857.32352 c 0.66,0 1.32,0 2,0 1.23681,1.74414 1.23681,1.74414 2.60156,4.15625 0.48984,0.85723 0.97969,1.71445 1.48438,2.59766 0.50789,0.90621 1.01578,1.81242 1.53906,2.74609 0.51562,0.90621 1.03125,1.81242 1.5625,2.74609 1.27758,2.2476 2.54802,4.49893 3.8125,6.75391 5.96394,-0.66438 11.13525,-2.29511 16.74609,-4.35938 4.94252,-1.74442 4.94252,-1.74442 8.25391,-0.64062 -0.74766,0.94102 -1.49531,1.88203 -2.26563,2.85156 -0.99491,1.25772 -1.98969,2.51554 -2.98437,3.77344 -0.7367,0.92619 -0.7367,0.92619 -1.48828,1.87109 -2.94477,3.73004 -5.68235,7.51202 -8.26172,11.50391 0.49983,0.8022 0.49983,0.8022 1.00976,1.6206 1.50136,2.4153 2.99587,4.83477 4.49024,7.2544 0.52465,0.84176 1.04929,1.68352 1.58984,2.55078 0.49629,0.80566 0.99258,1.61133 1.50391,2.44141 0.46084,0.74362 0.92168,1.48725 1.39648,2.25341 1.00977,1.8794 1.00977,1.8794 1.00977,3.8794 -9.5792,-2.71764 -9.5792,-2.71764 -13.8125,-4.75 -3.53951,-1.38804 -4.64895,-1.3965 -8.1875,-0.25 -1.9167,1.65358 -1.9167,1.65358 -3.51563,3.81641 -0.91652,1.14565 -0.91652,1.14565 -1.85156,2.31445 -0.62133,0.80244 -1.24266,1.60488 -1.88281,2.43164 -1.25292,1.58644 -2.50801,3.17118 -3.76563,4.75391 -0.54946,0.70584 -1.09892,1.41168 -1.66504,2.13891 -0.43538,0.50975 -0.87076,1.01949 -1.31933,1.54468 -0.33,0 -0.66,0 -1,0 -0.495,-13.86 -0.495,-13.86 -1,-28 -9.9,-3.96 -9.9,-3.96 -20,-8 3.42247,-2.28165 6.54132,-2.88605 10.5,-3.625 0.67676,-0.13406 1.35351,-0.26813 2.05078,-0.40625 2.86671,-0.55412 5.52253,-0.96875 8.44922,-0.96875 0.0735,-1.07315 0.0735,-1.07315 0.14844,-2.16797 0.57651,-7.68349 1.58906,-15.23256 2.85156,-22.83203 z"
     fill="#fbfbfc"
     id="path35" />
  <path
     d="m 670.53212,870.32352 c 2.28053,2.28053 3.65983,3.8441 5.26172,6.50391 0.39638,0.65806 0.79277,1.31613 1.20117,1.99414 0.40412,0.68127 0.80824,1.36254 1.22461,2.06445 0.41572,0.68514 0.83144,1.37027 1.25976,2.07617 3.05274,5.10794 3.05274,5.10794 3.05274,7.36133 0.6152,-0.21729 1.23041,-0.43458 1.86426,-0.65845 2.79152,-0.97903 5.58843,-1.94167 8.38574,-2.90405 0.96808,-0.34225 1.93617,-0.68449 2.93359,-1.03711 0.93457,-0.31904 1.86914,-0.63809 2.83203,-0.9668 0.85884,-0.2985 1.71768,-0.59699 2.60254,-0.90454 2.54771,-0.56589 3.94499,-0.37997 6.38184,0.47095 -0.75926,0.96422 -1.51852,1.92844 -2.30078,2.92187 -1.00393,1.27603 -2.00784,2.55207 -3.01172,3.82813 -0.49951,0.63422 -0.99903,1.26844 -1.51367,1.92187 -0.96841,1.23135 -1.93227,2.46628 -2.89112,3.70508 -1.02114,1.29207 -2.10171,2.53712 -3.20068,3.76367 -1.26838,1.82213 -1.26838,1.82213 -1.08594,4.08985 1.46926,4.05333 3.72512,7.47832 6.06641,11.08203 0.47244,0.74057 0.94488,1.48113 1.43164,2.24414 1.16173,1.81887 2.33287,3.63173 3.50586,5.44336 -3.54511,1.1817 -4.14018,0.7912 -7.44922,-0.65234 -1.27134,-0.54624 -1.27134,-0.54624 -2.56836,-1.10352 -0.88107,-0.38994 -1.76215,-0.77988 -2.66992,-1.18164 -0.89268,-0.38607 -1.78535,-0.77215 -2.70508,-1.16992 -2.20635,-0.95569 -4.40842,-1.92014 -6.60742,-2.89258 -0.27852,0.59023 -0.55704,1.18046 -0.844,1.78857 -1.79153,3.42718 -4.20136,6.31117 -6.5935,9.33643 -0.49049,0.63293 -0.98098,1.26586 -1.48633,1.91797 -0.4776,0.60715 -0.9552,1.2143 -1.44727,1.83984 -0.4324,0.55059 -0.8648,1.10118 -1.3103,1.66846 -1.3186,1.44873 -1.3186,1.44873 -4.3186,3.44873 0,-9.57 0,-19.14 0,-29 -1.65,-0.33 -3.3,-0.66 -5,-1 -1.26952,-0.43369 -2.52769,-0.90262 -3.76953,-1.41016 -0.99097,-0.40122 -0.99097,-0.40122 -2.00196,-0.81054 -0.67353,-0.2778 -1.34707,-0.55559 -2.04101,-0.8418 -0.69287,-0.28166 -1.38574,-0.56332 -2.09961,-0.85352 -1.69757,-0.69073 -3.39296,-1.38682 -5.08789,-2.08398 0,-0.66 0,-1.32 0,-2 2.87404,-0.50612 5.74903,-1.00507 8.625,-1.5 0.80824,-0.14309 1.61648,-0.28617 2.44922,-0.43359 0.79277,-0.13536 1.58554,-0.27071 2.40234,-0.41016 0.72268,-0.12568 1.44536,-0.25137 2.18994,-0.38086 2.76019,-0.32575 5.55415,-0.27539 8.3335,-0.27539 0,-8.25 0,-16.5 0,-25 z"
     fill="#fafbfc"
     id="path36" />
  <path
     d="m 461.53212,985.32356 c 3.04708,3.8088 5.72018,7.5507 8.25,11.6875 0.36351,0.5807 0.72703,1.1614 1.10156,1.7597 2.64844,4.30624 2.64844,4.30624 2.64844,6.55284 0.57967,-0.091 1.15935,-0.1818 1.75659,-0.2754 2.64304,-0.4121 5.28695,-0.8184 7.93091,-1.2246 0.91201,-0.1431 1.82402,-0.2862 2.76367,-0.4336 0.88623,-0.1354 1.77246,-0.2707 2.68555,-0.4102 0.8117,-0.1257 1.62341,-0.2514 2.45971,-0.3808 2.4889,-0.2852 4.90063,-0.3222 7.40357,-0.2754 -3.93367,4.7204 -7.99843,8.982 -12.5586,13.1054 -1.67983,1.7518 -1.67983,1.7518 -1.21533,3.7742 0.8922,2.4444 2.03502,3.9574 3.71533,5.9407 0.5833,0.6999 1.16661,1.3999 1.76758,2.1211 0.61166,0.7206 1.22332,1.4411 1.85352,2.1836 1.21398,1.4364 2.42384,2.8763 3.6289,4.3203 0.53827,0.6344 1.07653,1.2687 1.63111,1.9223 1.17749,1.6324 1.17749,1.6324 1.17749,3.6324 -6.31391,-1.2628 -12.17054,-3.0348 -18.20313,-5.293 -3.29326,-0.8325 -4.65651,-1.0439 -7.79687,0.293 -2.2982,2.2679 -4.19814,4.7898 -6.125,7.375 -1.04282,1.3631 -2.08704,2.7251 -3.13281,4.0859 -0.4552,0.6063 -0.91041,1.2127 -1.3794,1.8374 -1.35592,1.6931 -2.80113,3.1985 -4.36279,4.7017 0.97283,-8.4347 1.93702,-16.7481 4,-25 -0.94746,-0.2379 -0.94746,-0.2379 -1.91406,-0.4805 -7.88215,-2.0557 -15.45082,-4.6996 -23.08594,-7.5195 2.25348,-2.2535 3.71974,-2.7365 6.71875,-3.7266 1.39799,-0.4641 1.39799,-0.4641 2.82422,-0.9375 0.97582,-0.3171 1.95164,-0.6342 2.95703,-0.9609 1.46373,-0.4873 1.46373,-0.4873 2.95703,-0.9844 7.26228,-2.3906 7.26228,-2.3906 9.54297,-2.3906 0,-8.25 0,-16.50004 0,-25.00004 z"
     fill="#fafbfc"
     id="path37" />
  <path
     d="m 1041.5321,699.32352 c 2.8461,1.42303 3.2567,3.26701 4.6016,6.12891 0.4898,1.03447 0.9797,2.06894 1.4844,3.13476 0.5079,1.08861 1.0158,2.17723 1.539,3.29883 0.5157,1.09248 1.0313,2.18496 1.5625,3.31055 1.2764,2.70642 2.547,5.41544 3.8125,8.12695 0.6508,-0.21729 1.3015,-0.43458 1.972,-0.65845 2.9438,-0.97726 5.892,-1.94079 8.8405,-2.90405 1.0242,-0.34225 2.0484,-0.68449 3.1036,-1.03711 0.9829,-0.31904 1.9658,-0.63809 2.9785,-0.9668 0.9059,-0.2985 1.8119,-0.59699 2.7453,-0.90454 2.3601,-0.52905 2.3601,-0.52905 5.3601,0.47095 -0.3833,0.4585 -0.7666,0.91701 -1.1616,1.3894 -1.7444,2.09397 -3.4789,4.1959 -5.2134,6.2981 -0.6032,0.72123 -1.2065,1.44246 -1.8281,2.18555 -0.5801,0.70576 -1.1601,1.41152 -1.7578,2.13867 -0.5342,0.64413 -1.0683,1.28826 -1.6187,1.9519 -1.5683,2.24846 -2.4946,4.46407 -3.4204,7.03638 0.4189,0.49927 0.8378,0.99854 1.2693,1.51294 1.894,2.26273 3.7812,4.53105 5.6682,6.79956 0.6594,0.78568 1.3187,1.57137 1.9981,2.38086 0.6284,0.75732 1.2568,1.51465 1.9043,2.29492 0.5813,0.6965 1.1626,1.39299 1.7615,2.1106 1.3986,1.90112 1.3986,1.90112 2.3986,4.90112 -6.9223,-1.79873 -13.6557,-3.86017 -20.3711,-6.32813 -2.8669,-0.73271 -3.8955,-0.65717 -6.6289,0.32813 -1.799,1.38877 -1.799,1.38877 -3.4531,3.16016 -0.6187,0.62841 -1.2375,1.25683 -1.875,1.90429 -0.6342,0.65936 -1.2684,1.31871 -1.9219,1.99805 -0.6496,0.66322 -1.2993,1.32644 -1.9687,2.00977 -1.6007,1.63602 -3.194,3.27864 -4.7813,4.92773 -1.0713,-3.2976 -0.9028,-5.6043 -0.2226,-8.98438 0.1837,-0.93457 0.3674,-1.86914 0.5566,-2.83203 0.1992,-0.96808 0.3983,-1.93617 0.6035,-2.93359 0.1953,-0.98356 0.3906,-1.96711 0.5918,-2.98047 0.4826,-2.42481 0.9731,-4.84776 1.4707,-7.26953 -0.7013,-0.17918 -1.4026,-0.35836 -2.1252,-0.54297 -7.8141,-2.01478 -15.3118,-4.66371 -22.8748,-7.45703 0,-0.33 0,-0.66 0,-1 2.8531,-0.50721 5.7072,-1.00594 8.5625,-1.5 0.7999,-0.14309 1.5998,-0.28617 2.4239,-0.43359 0.7895,-0.13536 1.5791,-0.27071 2.3925,-0.41016 0.7175,-0.12568 1.4349,-0.25137 2.1741,-0.38086 3.1306,-0.35232 6.2967,-0.27539 9.447,-0.27539 0,-9.9 0,-19.8 0,-30 z"
     fill="#f8f9fb"
     id="path38" />
  <path
     d="m 977.53208,908.32352 c 3.2308,3.2308 6.046,6.13747 8.8125,9.6875 0.6046,0.76699 1.2092,1.53398 1.8321,2.32422 1.3554,1.98828 1.3554,1.98828 1.3554,3.98828 0.5797,-0.0909 1.1594,-0.18176 1.7566,-0.27539 2.6431,-0.41211 5.287,-0.81841 7.9309,-1.22461 0.91202,-0.14309 1.82412,-0.28617 2.76372,-0.43359 1.3294,-0.20303 1.3294,-0.20303 2.6856,-0.41016 0.8117,-0.12568 1.6234,-0.25137 2.4597,-0.38086 2.4889,-0.28517 4.9006,-0.32214 7.4035,-0.27539 -1.6586,4.32505 -4.871,7.09419 -8.125,10.25 -0.5633,0.5543 -1.1266,1.10859 -1.707,1.67969 -1.3848,1.36135 -2.7758,2.71646 -4.168,4.07035 1.6396,4.6393 4.0687,8.6385 6.625,12.8125 0.6304,1.0393 0.6304,1.0393 1.2735,2.0996 1.0305,1.698 2.0656,3.3932 3.1015,5.0879 -4.1208,1.3736 -6.6444,-0.2385 -10.4375,-1.875 -5.64832,-2.4591 -5.64832,-2.4591 -11.56252,-4.125 -0.2359,0.6638 -0.4718,1.3277 -0.7148,2.0117 -1.638,3.8086 -3.7025,7.2595 -5.8477,10.8008 -0.4118,0.6928 -0.8237,1.3857 -1.248,2.0996 -1.0323,1.7149 -2.1072,3.4041 -3.1895,5.0879 -0.33,0 -0.66,0 -1,0 -0.495,-12.375 -0.495,-12.375 -1,-25 -6.27,-2.64 -12.54,-5.28 -19,-8 1.3055,-2.61091 2.3403,-2.70895 5.0352,-3.7266 1.0926,-0.41887 1.0926,-0.41887 2.2073,-0.84619 0.9306,-0.34725 1.8612,-0.69449 2.82,-1.05225 4.4241,-1.67063 4.4241,-1.67063 8.9375,-3.375 0.33,-6.93 0.66,-13.86 1,-21 z"
     fill="#f9fafb"
     id="path39" />
  <path
     d="m 1084.5321,750.32352 c 3.2744,3.27438 5.304,5.92927 7.75,9.75 3.0427,4.41405 3.0427,4.41405 8,6.0625 2.0337,-0.27623 2.0337,-0.27623 4.25,-0.8125 2.0621,-0.33606 4.1246,-0.66923 6.1875,-1 0.9836,-0.18563 1.9671,-0.37125 2.9805,-0.5625 2.6662,-0.41188 5.1402,-0.51624 7.832,-0.4375 -3.9266,4.712 -7.9682,8.93313 -12.5586,13.00781 -1.6609,1.88777 -1.6609,1.88777 -1.4492,4.25391 1.3938,3.787 3.417,7.02591 5.5703,10.42578 4.4375,7.06364 4.4375,7.06364 4.4375,9.3125 -9.5792,-2.71764 -9.5792,-2.71764 -13.8125,-4.75 -3.6759,-1.44155 -4.5348,-1.60225 -8.1875,-0.25 -2.62,2.16192 -4.9226,4.59275 -7.25,7.0625 -1.2532,1.30526 -2.5083,2.60875 -3.7656,3.91016 -0.5495,0.58015 -1.0989,1.16031 -1.665,1.75805 -1.3194,1.26929 -1.3194,1.26929 -2.3194,1.26929 0.5855,-7.10229 1.6542,-14.00157 3,-21 -9.9,-3.96 -9.9,-3.96 -20,-8 2.0974,-2.09734 3.4031,-2.68848 6.1328,-3.72656 1.0889,-0.41887 1.0889,-0.41887 2.1998,-0.84619 0.9215,-0.34725 1.843,-0.69449 2.7924,-1.05225 2.9288,-1.11375 5.8575,-2.2275 8.875,-3.375 0.33,-6.93 0.66,-13.86 1,-21 z"
     fill="#fafbfc"
     id="path40" />
  <path
     d="m 1046.5321,802.32352 c 3.5198,3.51978 6.0912,6.31052 8.8125,10.3125 0.6046,0.88301 1.2092,1.76602 1.8321,2.67578 0.4473,0.66387 0.8946,1.32774 1.3554,2.01172 0.6152,-0.0961 1.2304,-0.19223 1.8643,-0.29126 2.7941,-0.43186 5.5898,-0.85167 8.3857,-1.27124 0.9681,-0.15147 1.9362,-0.30293 2.9336,-0.45898 0.9346,-0.13858 1.8692,-0.27715 2.8321,-0.41993 0.8588,-0.13092 1.7176,-0.26184 2.6025,-0.39673 2.3818,-0.16186 2.3818,-0.16186 6.3818,0.83814 -4.95,4.95 -9.9,9.9 -15,15 1.3122,3.28052 2.3833,5.84394 4.1641,8.76953 0.3996,0.66065 0.7992,1.32129 1.2109,2.00195 0.4125,0.67354 0.825,1.34707 1.25,2.04102 0.6304,1.03931 0.6304,1.03931 1.2735,2.09961 1.0305,1.698 2.0656,3.39323 3.1015,5.08789 -4.6073,1.53579 -8.223,-1.00914 -12.4629,-2.90625 -4.7165,-2.05457 -4.7165,-2.05457 -9.5371,-1.09375 -1.8638,2.15586 -3.5335,4.25764 -5.1875,6.5625 -1.5837,2.1637 -3.185,4.30603 -4.8125,6.4375 -0.33,0 -0.66,0 -1,0 0,-6.6 0,-13.2 0,-20 -2.1346,-0.58781 -2.1346,-0.58781 -4.3125,-1.1875 -5.8234,-1.73286 -11.221,-4.18318 -16.6875,-6.8125 2.0974,-2.09734 3.4031,-2.68848 6.1328,-3.72656 1.0889,-0.41887 1.0889,-0.41887 2.1998,-0.84619 0.9215,-0.34725 1.843,-0.69449 2.7924,-1.05225 2.9288,-1.11375 5.8575,-2.2275 8.875,-3.375 0.33,-6.6 0.66,-13.2 1,-20 z"
     fill="#fbfcfd"
     id="path41" />
  <path
     d="m 892.53212,895.32352 c 1.05187,0.88687 2.10375,1.77375 3.1875,2.6875 0.64324,0.54141 1.28648,1.08281 1.94922,1.64062 1.86328,1.67188 1.86328,1.67188 4.36328,4.60938 2.40242,2.44696 2.40242,2.44696 5.9375,1.9375 1.17562,-0.28875 2.35125,-0.5775 3.5625,-0.875 1.9982,-0.34393 3.99798,-0.679 6,-1 -0.52852,1.0248 -1.05703,2.04961 -1.60157,3.10547 -0.67541,1.36021 -1.34984,2.72091 -2.02343,4.08203 -0.52594,1.0103 -0.52594,1.0103 -1.0625,2.04102 -1.52335,3.12286 -2.47038,5.07485 -1.6875,8.52929 1.26104,2.05635 2.53031,4.01738 4,5.92969 2.375,3.09574 2.375,3.09574 2.375,5.3125 -0.83532,-0.19916 -0.83532,-0.19916 -1.6875,-0.40234 -5.09837,-1.17986 -10.11038,-2.03016 -15.3125,-2.59766 -0.49371,0.79406 -0.98742,1.58812 -1.4961,2.40625 -0.64066,1.02094 -1.28132,2.04187 -1.9414,3.09375 -0.63809,1.02094 -1.27617,2.04184 -1.9336,3.09374 -0.53753,0.7941 -1.07507,1.5881 -1.6289,2.4063 -0.33,0 -0.66,0 -1,0 0,-5.61004 0,-11.22004 0,-17.00004 -1.98,-0.66 -3.96,-1.32 -6,-2 -1.80815,-0.84041 -3.60128,-1.71417 -5.375,-2.625 -0.87399,-0.44602 -1.74797,-0.89203 -2.64844,-1.35156 -0.65227,-0.33774 -1.30453,-0.67547 -1.97656,-1.02344 0.33,-0.66 0.66,-1.32 1,-2 2.61718,-0.85156 2.61718,-0.85156 5.875,-1.625 1.60488,-0.39059 1.60488,-0.39059 3.24219,-0.78906 2.88281,-0.58594 2.88281,-0.58594 5.88281,-0.58594 0,-5.61 0,-11.22 0,-17 z"
     fill="#fbfcfc"
     id="path42" />
  <path
     d="m 632.53212,704.32352 c 3.27275,3.27275 5.54738,6.14588 8,10 5.78097,-0.63065 11.34437,-1.65155 17,-3 -1.42845,4.93463 -3.62516,9.10639 -6.17188,13.53516 -1.08205,2.45837 -1.08205,2.45837 -0.13281,4.97265 1.28401,2.45269 2.56382,4.89645 3.92969,7.30469 0.44601,0.79019 0.89203,1.58039 1.35156,2.39453 0.33773,0.59168 0.67547,1.18336 1.02344,1.79297 -0.83532,-0.19916 -0.83532,-0.19916 -1.6875,-0.40234 -5.09837,-1.17986 -10.11038,-2.03016 -15.3125,-2.59766 -0.49371,0.72187 -0.98742,1.44375 -1.4961,2.1875 -0.64066,0.92812 -1.28132,1.85625 -1.9414,2.8125 -0.63809,0.92812 -1.27617,1.85625 -1.9336,2.8125 -0.53753,0.72187 -1.07507,1.44375 -1.6289,2.1875 -0.33,0 -0.66,0 -1,0 0,-5.28 0,-10.56 0,-16 -1.32,-0.4125 -2.64,-0.825 -4,-1.25 -4.58985,-1.52025 -8.72662,-3.49676 -13,-5.75 0.33,-0.66 0.66,-1.32 1,-2 2.58203,-0.85156 2.58203,-0.85156 5.8125,-1.625 1.58748,-0.39059 1.58748,-0.39059 3.20703,-0.78906 2.98047,-0.58594 2.98047,-0.58594 6.98047,-0.58594 0,-5.28 0,-10.56 0,-16 z"
     fill="#fafbfc"
     id="path43" />
  <path
     d="m 960.53208,857.32352 c 2.3174,3.08986 3.9938,5.71712 5.6875,9.125 0.6555,1.30324 0.6555,1.30324 1.3243,2.63281 0.9882,2.24219 0.9882,2.24219 0.9882,4.24219 1.3555,-0.34225 1.3555,-0.34225 2.7383,-0.69141 1.1795,-0.28746 2.359,-0.57492 3.5742,-0.87109 1.7577,-0.43506 1.7577,-0.43506 3.5508,-0.87891 3.1367,-0.55859 3.1367,-0.55859 6.1367,0.44141 -3.3,3.3 -6.6,6.6 -10,10 1.42,3.54997 2.6122,6.1873 4.625,9.3125 0.4461,0.69738 0.8921,1.39477 1.3516,2.11328 0.3377,0.51949 0.6755,1.03899 1.0234,1.57422 -6.878,-0.96292 -6.878,-0.96292 -9.8789,-1.875 -3.3355,-0.47039 -3.3355,-0.47039 -6.0781,2.18359 -0.9702,1.02585 -1.9218,2.06969 -2.8555,3.12891 -1.7212,1.86187 -3.4515,3.71421 -5.1875,5.5625 -0.33,0 -0.66,0 -1,0 0.056,-1.14598 0.1109,-2.29195 0.168,-3.47266 0.4009,-8.8172 0.4009,-8.8172 -3.68359,-16.14453 -2.99532,-1.85913 -2.99532,-1.85913 -6.11328,-3.2539 -0.78246,-0.37254 -1.56492,-0.74508 -2.37109,-1.12891 0,-0.66 0,-1.32 0,-2 1.24663,-0.50834 2.49749,-1.00631 3.75,-1.5 0.69609,-0.27844 1.39218,-0.55688 2.10937,-0.84375 2.14063,-0.65625 2.14063,-0.65625 6.14059,-0.65625 1.32,-5.61 2.64,-11.22 4,-17 z"
     fill="#fafbfc"
     id="path44" />
  <path
     d="m 819.53212,912.32352 c 8,8 8,8 8,12 0.97582,-0.22816 1.95164,-0.45633 2.95703,-0.69141 1.90846,-0.43119 1.90846,-0.43119 3.85547,-0.87109 1.26457,-0.29004 2.52914,-0.58008 3.83203,-0.87891 3.35547,-0.55859 3.35547,-0.55859 6.35547,0.44141 -3.63,3.63 -7.26,7.26 -11,11 2.31,5.28004 4.62,10.56004 7,16.00004 -3.54997,-1.42 -6.1873,-2.6122 -9.3125,-4.625 -0.69739,-0.4461 -1.39477,-0.8921 -2.11328,-1.3516 -0.77924,-0.5066 -0.77924,-0.5066 -1.57422,-1.0234 -0.2359,0.5311 -0.4718,1.0621 -0.71485,1.6093 -1.66552,3.0982 -3.73015,5.8441 -5.84765,8.6407 -0.41186,0.5543 -0.82371,1.1086 -1.24805,1.6796 -1.03638,1.3774 -2.10984,2.7267 -3.18945,4.0704 -0.33,0 -0.66,0 -1,0 0,-6.93 0,-13.86 0,-21 -4.455,-0.99004 -4.455,-0.99004 -9,-2.00004 -0.99,-0.66 -1.98,-1.32 -3,-2 1.62327,-0.67087 3.24867,-1.33657 4.875,-2 0.90492,-0.37125 1.80984,-0.7425 2.74219,-1.125 2.38281,-0.875 2.38281,-0.875 4.38281,-0.875 1.32,-5.61 2.64,-11.22 4,-17 z"
     fill="#f9f9fb"
     id="path45" />
  <path
     d="m 363.53212,960.32356 c 3.2308,3.2308 6.04601,6.1374 8.8125,9.6875 0.60457,0.767 1.20914,1.5339 1.83203,2.3242 1.35547,1.9883 1.35547,1.9883 1.35547,3.9883 0.68707,-0.3004 1.37414,-0.6007 2.08203,-0.9102 0.90105,-0.3803 1.80211,-0.7605 2.73047,-1.1523 1.33998,-0.5743 1.33998,-0.5743 2.70703,-1.1602 2.48047,-0.7773 2.48047,-0.7773 5.48047,0.2227 -0.51692,0.6754 -1.03383,1.3509 -1.56641,2.0468 -0.65871,0.8921 -1.31742,1.7841 -1.99609,2.7032 -0.66129,0.8817 -1.32258,1.7634 -2.00391,2.6718 -1.61501,2.3708 -1.61501,2.3708 -1.33984,4.5235 1.22717,2.7823 2.56639,5.481 3.96875,8.1797 2.9375,5.6538 2.9375,5.6538 2.9375,7.87504 -4.43325,-1.70334 -8.58162,-3.79204 -12.79297,-5.97664 -2.10397,-1.1637 -2.10397,-1.1637 -4.20703,-1.0234 -1.25613,1.787 -2.43209,3.6309 -3.5625,5.5 -1.12225,1.84784 -2.26216,3.68544 -3.4375,5.50004 -0.33,0 -0.66,0 -1,0 -0.33,-5.28 -0.66,-10.56004 -1,-16.00004 -4.95,-1.32 -9.9,-2.64 -15,-4 3.74698,-3.747 9.98201,-3.9177 15,-5 0.33,-6.6 0.66,-13.2 1,-20 z"
     fill="#fafbfc"
     id="path46" />
  <path
     d="m 171.53212,943.32356 c 3.25524,3.0227 5.61821,6.2571 8,10 5.35035,-0.5703 10.67788,-1.2074 16,-2 -0.91448,1.0851 -1.83171,2.168 -2.75,3.25 -0.81405,0.9629 -0.81405,0.9629 -1.64453,1.9453 -1.60547,1.8047 -1.60547,1.8047 -4.04297,3.9297 -0.51563,0.6187 -1.03125,1.2375 -1.5625,1.875 0.50332,4.8434 2.75308,8.5809 5.03906,12.7929 0.47566,1.0925 0.47566,1.0925 0.96094,2.2071 -0.495,0.99 -0.495,0.99 -1,2 -0.60328,-0.4448 -1.20657,-0.8895 -1.82813,-1.3477 -0.79922,-0.5659 -1.59843,-1.1318 -2.42187,-1.7148 -0.78891,-0.5685 -1.57781,-1.137 -2.39063,-1.7227 -2.22418,-1.3944 -2.22418,-1.3944 -4.42578,-1.1133 -2.37395,1.1031 -3.81186,2.4482 -5.62109,4.336 -0.60199,0.6174 -1.20399,1.2349 -1.82422,1.8711 -1.56654,1.6353 -1.56654,1.6353 -2.48828,3.6914 -0.66,0 -1.32,0 -2,0 0,-5.28 0,-10.56 0,-16 -1.8975,-0.3094 -3.795,-0.6188 -5.75,-0.9375 -3.46003,-0.5642 -6.86372,-1.1502 -10.25,-2.0625 0,-0.66 0,-1.32 0,-2 1.91512,-0.5059 3.83217,-1.0045 5.75,-1.5 1.60101,-0.4177 1.60101,-0.4177 3.23437,-0.8438 3.01563,-0.6562 3.01563,-0.6562 7.01563,-0.6562 0.12117,-0.7361 0.24234,-1.4721 0.36719,-2.2305 0.16757,-0.9758 0.33515,-1.9516 0.50781,-2.957 0.16242,-0.963 0.32484,-1.9259 0.49219,-2.918 0.6132,-2.8049 1.48947,-5.2668 2.63281,-7.8945 z"
     fill="#fbfbfc"
     id="path47" />
  <path
     d="m 875.53212,969.32356 c 2.75602,2.756 4.00872,4.6394 5.6875,8.0625 0.65549,1.3167 0.65549,1.3167 1.32422,2.6601 0.98828,2.2774 0.98828,2.2774 0.98828,4.2774 5.61,-1.32 11.22,-2.64 17,-4 -1.56137,3.9034 -2.2486,5.5074 -4.75,8.4375 -2.09438,2.8131 -2.09438,2.8131 -1.875,6.3125 0.53625,1.0725 1.0725,2.145 1.625,3.25 0.87817,1.95694 1.75293,3.91534 2.625,5.87504 0.78873,1.7096 1.57943,3.4184 2.375,5.125 -4.36324,-1.309 -8.12993,-3.0538 -12.07031,-5.293 -2.49316,-0.9135 -3.51775,-0.8143 -5.92969,0.293 -1.74373,2.0673 -1.74373,2.0673 -3.1875,4.5625 -0.91873,1.4909 -1.85135,2.9736 -2.8125,4.4375 -0.33,0 -0.66,0 -1,0 0,-5.28 0,-10.56 0,-16.00004 -2.59875,-0.4332 -2.59875,-0.4332 -5.25,-0.875 -3.61716,-0.6029 -6.5499,-1.3116 -9.75,-3.125 3.2001,-1.8134 6.13284,-2.5222 9.75,-3.125 1.7325,-0.2888 3.465,-0.5775 5.25,-0.875 0,-6.6 0,-13.2 0,-20 z"
     fill="#fafbfc"
     id="path48" />
  <path
     d="m 354.53212,891.32352 c 8,8 8,8 8,12 1.33804,-0.34225 1.33804,-0.34225 2.70312,-0.69141 1.17047,-0.28746 2.34094,-0.57492 3.54688,-0.87109 1.16015,-0.29004 2.32031,-0.58008 3.51562,-0.87891 2.95529,-0.51039 4.47872,-0.58855 7.23438,0.44141 -0.66709,0.87012 -0.66709,0.87012 -1.34766,1.75781 -3.50927,4.66289 -3.50927,4.66289 -4.83984,10.17969 1.46224,3.77104 3.22195,7.32522 5.1289,10.89062 1.0586,2.17188 1.0586,2.17188 1.0586,4.17188 -4.3512,-1.30536 -8.18943,-3.04517 -12.16797,-5.19531 -1.95633,-1.00577 -1.95633,-1.00577 -4.83203,-0.80469 -1.89177,2.45764 -1.89177,2.45764 -3.625,5.5 -1.10462,1.84569 -2.22439,3.68263 -3.375,5.5 -0.33,0 -0.66,0 -1,0 -0.33,-5.61 -0.66,-11.22 -1,-17 -3.43406,-0.68063 -3.43406,-0.68063 -6.9375,-1.375 -2.36959,-0.46965 -4.73002,-0.99647 -7.0625,-1.625 -0.33,-0.66 -0.66,-1.32 -1,-2 1.91512,-0.50588 3.83217,-1.00448 5.75,-1.5 1.60101,-0.41766 1.60101,-0.41766 3.23437,-0.84375 3.01563,-0.65625 3.01563,-0.65625 7.01563,-0.65625 0,-5.61 0,-11.22 0,-17 z"
     fill="#f7f8fa"
     id="path49" />
  <path
     d="m 1016.5321,854.32352 c 2.3534,3.13783 3.9969,5.7773 5.6875,9.25 0.6555,1.33805 0.6555,1.33805 1.3243,2.70312 0.4892,1.01321 0.4892,1.01321 0.9882,2.04688 0.9759,-0.22816 1.9517,-0.45633 2.9571,-0.69141 1.9084,-0.43119 1.9084,-0.43119 3.8554,-0.87109 1.2646,-0.29004 2.5292,-0.58008 3.8321,-0.87891 3.3554,-0.55859 3.3554,-0.55859 6.3554,0.44141 -0.5285,0.73605 -1.057,1.47211 -1.6015,2.23047 -0.6678,0.97582 -1.3355,1.95164 -2.0235,2.95703 -0.6729,0.96293 -1.3457,1.92586 -2.039,2.91797 -1.6468,2.78173 -1.6468,2.78173 -0.711,5.48828 1.2972,2.27001 2.5843,4.52057 4,6.71875 0.4461,0.69738 0.8921,1.39477 1.3516,2.11328 0.3377,0.51949 0.6755,1.03899 1.0234,1.57422 -1.0866,-0.19916 -1.0866,-0.19916 -2.1953,-0.40234 -0.9668,-0.17661 -1.9336,-0.35321 -2.9297,-0.53516 -0.9513,-0.17402 -1.9026,-0.34805 -2.8828,-0.52734 -2.9937,-0.53544 -5.9913,-1.04096 -8.9922,-1.53516 -0.4937,0.79406 -0.9874,1.58812 -1.4961,2.40625 -0.6406,1.02094 -1.2813,2.04187 -1.9414,3.09375 -0.638,1.02094 -1.2761,2.04187 -1.9336,3.09375 -0.5375,0.79406 -1.075,1.58812 -1.6289,2.40625 -0.33,0 -0.66,0 -1,0 0,-5.28 0,-10.56 0,-16 -1.32,-0.28875 -2.64,-0.5775 -4,-0.875 -4.3543,-0.96609 -8.6777,-2.0248 -13.00002,-3.125 4.98592,-2.78337 10.48502,-3.68118 16.00002,-5 0.33,-6.27 0.66,-12.54 1,-19 z"
     fill="#fafafc"
     id="path50" />
  <path
     d="m 696.53212,755.32352 c 7,8.75 7,8.75 7,11 5.61,-0.99 11.22,-1.98 17,-3 -2,5 -2,5 -4.1875,8 -2.06295,2.7517 -2.06295,2.7517 -1.61719,5.33203 0.92733,3.0746 2.26297,5.57558 3.86719,8.35547 2.9375,5.10779 2.9375,5.10779 2.9375,7.3125 -4.43437,-1.69269 -8.52348,-3.82346 -12.69531,-6.07422 -2.40105,-1.25314 -2.40105,-1.25314 -5.30469,0.0742 -1.63817,2.08946 -1.63817,2.08946 -3.125,4.5625 -0.93642,1.49314 -1.8892,2.9765 -2.875,4.4375 -0.33,0 -0.66,0 -1,0 0,-5.28 0,-10.56 0,-16 -1.32,-0.12375 -2.64,-0.2475 -4,-0.375 -4.47793,-0.48966 -8.65744,-1.44066 -13,-2.625 2.53605,-2.53605 4.46876,-2.7925 7.9375,-3.625 1.59135,-0.39059 1.59135,-0.39059 3.21484,-0.78906 2.84766,-0.58594 2.84766,-0.58594 5.84766,-0.58594 0,-5.28 0,-10.56 0,-16 z"
     fill="#fafafc"
     id="path51" />
  <path
     d="m 397.53212,682.32352 c 2.43379,2.43379 3.94249,4.31059 5.6875,7.1875 0.65549,1.07314 0.65549,1.07314 1.32422,2.16797 0.4892,0.81404 0.4892,0.81404 0.98828,1.64453 0.72445,-0.13277 1.4489,-0.26555 2.19531,-0.40234 4.9296,-0.90048 9.85791,-1.79548 14.80469,-2.59766 -3.50898,4.18424 -7.08061,8.19588 -11,12 1.67923,3.80133 4.11463,6.97083 6.625,10.25 0.42023,0.5543 0.84047,1.10859 1.27343,1.67969 1.03095,1.35898 2.06587,2.71495 3.10157,4.07031 -0.99,0.495 -0.99,0.495 -2,1 -3.10046,-1.44628 -6.05791,-3.10067 -9.05469,-4.75 -3.1822,-1.35054 -3.84725,-1.44401 -6.94531,-0.25 -1.88915,2.15534 -3.5758,4.25318 -5.25,6.5625 -0.45891,0.61553 -0.91781,1.23105 -1.39063,1.86523 -1.12909,1.51722 -2.24548,3.04386 -3.35937,4.57227 -1.57199,-3.14398 -0.29153,-6.13983 0.4375,-9.4375 1.16563,-5.22985 1.16563,-5.22985 1.5625,-10.5625 -4.95,-1.32 -9.9,-2.64 -15,-4 2.59448,-1.72965 3.97107,-2.41314 6.875,-3.125 0.65742,-0.16758 1.31484,-0.33516 1.99219,-0.50781 2.13281,-0.36719 2.13281,-0.36719 7.13281,-0.36719 0,-5.61 0,-11.22 0,-17 z"
     fill="#f9f9fb"
     id="path52" />
  <path
     d="m 1118.5321,686.32352 c 2.629,3.94343 3.0593,7.36359 4,12 5.61,-1.32 11.22,-2.64 17,-4 -1.5494,3.87354 -2.2785,5.55641 -4.75,8.5 -1.3347,1.74017 -1.3347,1.74017 -2.25,3.5 0.5799,3.39649 2.2068,5.31009 4.125,8.1875 1.875,2.8125 1.875,2.8125 1.875,4.8125 -0.736,-0.14438 -1.4721,-0.28875 -2.2304,-0.4375 -0.9759,-0.18563 -1.9517,-0.37125 -2.9571,-0.5625 -0.9629,-0.18563 -1.9258,-0.37125 -2.9179,-0.5625 -3.9464,-0.65484 -3.9464,-0.65484 -7.8946,-0.4375 -2.0945,2.18053 -2.0945,2.18053 -3.75,5 -1.0702,1.67512 -2.1501,3.34422 -3.25,5 -0.33,0 -0.66,0 -1,0 0,-5.28 0,-10.56 0,-16 -1.4231,-0.30938 -2.8462,-0.61875 -4.3125,-0.9375 -2.6426,-0.57449 -5.1165,-1.20552 -7.6875,-2.0625 0,-0.66 0,-1.32 0,-2 1.4356,-0.5056 2.8736,-1.00428 4.3125,-1.5 0.8005,-0.27844 1.6011,-0.55688 2.4258,-0.84375 2.2617,-0.65625 2.2617,-0.65625 5.2617,-0.65625 0.205,-1.1434 0.41,-2.2868 0.6211,-3.46484 0.272,-1.49093 0.5441,-2.98181 0.8164,-4.47266 0.1347,-0.75475 0.2695,-1.50949 0.4082,-2.28711 1.0411,-5.66211 1.0411,-5.66211 2.1543,-6.77539 z"
     fill="#f9f9fb"
     id="path53" />
  <path
     d="m 576.53212,784.32352 c 2.43379,2.43379 3.94249,4.31059 5.6875,7.1875 0.65549,1.07314 0.65549,1.07314 1.32422,2.16797 0.4892,0.81404 0.4892,0.81404 0.98828,1.64453 4.34485,-0.60828 8.67392,-1.27082 13,-2 -0.52852,0.73605 -1.05703,1.47211 -1.60157,2.23047 -0.66773,0.97582 -1.33546,1.95164 -2.02343,2.95703 -0.67289,0.96293 -1.34578,1.92586 -2.03906,2.91797 -1.64747,2.78599 -1.64747,2.78599 -0.71094,5.51953 1.24824,2.15605 2.512,4.19044 4,6.1875 0.78375,1.05187 1.5675,2.10375 2.375,3.1875 -0.495,0.99 -0.495,0.99 -1,2 -0.61489,-0.21656 -1.22977,-0.43313 -1.86328,-0.65625 -0.80825,-0.27844 -1.61649,-0.55688 -2.44922,-0.84375 -0.80051,-0.27844 -1.60102,-0.55688 -2.42578,-0.84375 -2.34942,-0.79558 -2.34942,-0.79558 -5.26172,-0.65625 -1.89177,2.45764 -1.89177,2.45764 -3.625,5.5 -1.10462,1.84569 -2.22439,3.68263 -3.375,5.5 -0.33,0 -0.66,0 -1,0 0,-5.61 0,-11.22 0,-17 -2.64,-0.33 -5.28,-0.66 -8,-1 -2.70338,-0.57155 -5.32882,-1.28451 -8,-2 0.33,-0.66 0.66,-1.32 1,-2 2.61718,-0.85156 2.61718,-0.85156 5.875,-1.625 1.60488,-0.39059 1.60488,-0.39059 3.24219,-0.78906 2.88281,-0.58594 2.88281,-0.58594 5.88281,-0.58594 0,-5.61 0,-11.22 0,-17 z"
     fill="#f6f7f9"
     id="path54" />
  <path
     d="m 990.53208,976.32356 c 2.9226,3.6531 5.4703,7.1151 8,11 4.03002,-0.5532 8.02032,-1.1558 12.00002,-2 -1.98,2.31 -3.96,4.62 -6,7 1.5571,4.671 4.0845,8.08704 7,12.00004 -0.33,0.66 -0.66,1.32 -1,2 -0.6032,-0.2282 -1.2065,-0.4564 -1.8281,-0.6914 -0.7992,-0.2875 -1.5984,-0.575 -2.4219,-0.8711 -0.7889,-0.2901 -1.5778,-0.5801 -2.3906,-0.8789 -2.7323,-0.6469 -3.7981,-0.7014 -6.35942,0.4414 -2.6607,2.2974 -2.6607,2.2974 -5.25,5.0625 -0.892,0.9191 -1.784,1.8382 -2.7031,2.7851 -1.0132,1.0654 -1.0132,1.0654 -2.0469,2.1524 -1.2906,-3.872 -0.2232,-6.4424 0.9375,-10.1875 0.1953,-0.6542 0.3906,-1.3084 0.5918,-1.9825 0.4826,-1.6123 0.9756,-3.22154 1.4707,-4.83004 -0.999,-0.1934 -1.998,-0.3868 -3.0273,-0.586 -1.2904,-0.2604 -2.5807,-0.5208 -3.9102,-0.789 -1.9316,-0.3829 -1.9316,-0.3829 -3.9023,-0.7735 -1.0429,-0.281 -2.0857,-0.562 -3.1602,-0.8515 -0.33,-0.66 -0.66,-1.32 -1,-2 1.7482,-0.5064 3.4987,-1.0049 5.25,-1.5 0.9746,-0.2785 1.9491,-0.5569 2.9532,-0.8438 2.7968,-0.6562 2.7968,-0.6562 6.7968,-0.6562 0,-4.29 0,-8.58 0,-13 z"
     fill="#f5f6f9"
     id="path55" />
  <path
     d="m 730.53212,560.32352 c 2.95183,2.95183 3.08664,5.95512 4,10 0.53109,-0.22816 1.06219,-0.45633 1.60937,-0.69141 0.70641,-0.28746 1.41282,-0.57492 2.14063,-0.87109 0.69609,-0.29004 1.39219,-0.58008 2.10937,-0.87891 2.14063,-0.55859 2.14063,-0.55859 6.14063,0.44141 -1.98,1.98 -3.96,3.96 -6,6 1.08413,3.07171 2.30498,5.45747 4.125,8.1875 1.875,2.8125 1.875,2.8125 1.875,4.8125 -1.21688,-0.33 -2.43375,-0.66 -3.6875,-1 -4.6211,-1.22797 -4.6211,-1.22797 -9.3125,-1 -2.51547,1.8179 -4.7722,3.84282 -7,6 0.009,-0.81984 0.018,-1.63969 0.0273,-2.48438 0.10643,-6.10591 0.10643,-6.10591 -2.65234,-11.20312 -2.12591,-1.22977 -2.12591,-1.22977 -5.375,-2.3125 2.50516,-2.50516 4.61068,-3.05099 8,-4 1.32,0 2.64,0 4,0 0,-3.63 0,-7.26 0,-11 z"
     fill="#f5f6f9"
     id="path56" />
  <path
     d="m 632.53212,820.32352 c 1.7084,1.63412 2.93453,2.86906 4,5 2.64,-0.66 5.28,-1.32 8,-2 -0.52594,1.02094 -0.52594,1.02094 -1.0625,2.0625 -1.53584,4.81231 -0.15783,9.17092 1.0625,13.9375 -0.56848,-0.25137 -1.13696,-0.50273 -1.72266,-0.76172 -4.59195,-1.90881 -4.59195,-1.90881 -9.43359,-1.76953 -2.12129,0.89921 -2.12129,0.89921 -4.84375,2.53125 1.875,-5.75 1.875,-5.75 3,-8 -2.31,0 -4.62,0 -7,0 0.33,-0.66 0.66,-1.32 1,-2 2.31406,-0.73076 4.64829,-1.40138 7,-2 0,-2.31 0,-4.62 0,-7 z"
     fill="#f3f4f7"
     id="path57" />
  <path
     d="m 278.53212,829.32352 c 1.5,1.3125 1.5,1.3125 3,3 0,0.99 0,1.98 0,3 2.97,-1.32 5.94,-2.64 9,-4 -0.30938,0.7425 -0.61875,1.485 -0.9375,2.25 -0.52594,1.36125 -0.52594,1.36125 -1.0625,2.75 -0.26813,0.61875 -0.53625,1.2375 -0.8125,1.875 -0.30677,3.47671 1.31744,6.01529 2.8125,9.125 -1.29938,-0.52594 -1.29938,-0.52594 -2.625,-1.0625 -3.68679,-1.02411 -5.69641,-0.81716 -9.375,0.0625 -0.78375,0.18562 -1.5675,0.37125 -2.375,0.5625 -0.53625,0.14437 -1.0725,0.28875 -1.625,0.4375 1.875,-5.75 1.875,-5.75 3,-8 -1.98,0 -3.96,0 -6,0 1.96382,-1.5056 3.78263,-2.89132 6,-4 0.65772,-3.02934 0.65772,-3.02934 1,-6 z"
     fill="#f6f8fa"
     id="path58" />
  <path
     d="m 730.53212,1088.3236 c 1.50559,1.9638 2.89131,3.7826 4,6 2.64,-0.66 5.28,-1.32 8,-2 -0.52594,1.0828 -0.52594,1.0828 -1.0625,2.1875 -1.0533,3.1599 -0.87347,4.6642 0.0625,7.8125 0.33,0.66 0.66,1.32 1,2 -0.92233,0.073 -0.92233,0.073 -1.86328,0.1484 -0.80825,0.075 -1.61649,0.1495 -2.44922,0.2266 -0.80051,0.07 -1.60102,0.1392 -2.42578,0.2109 -2.53397,0.3097 -2.53397,0.3097 -5.26172,2.4141 0,-2.64 0,-5.28 0,-8 -1.70156,-0.4332 -1.70156,-0.4332 -3.4375,-0.875 -1.17563,-0.3713 -2.35125,-0.7425 -3.5625,-1.125 -0.33,-0.66 -0.66,-1.32 -1,-2 2.64,0 5.28,0 8,0 0,-2.31 0,-4.62 0,-7 z"
     fill="#f6f7f9"
     id="path59" />
</svg>
