<?xml version="1.0" encoding="UTF-8" standalone="no"?>
<svg
   version="1.1"
   width="1094.0278"
   height="1429"
   id="svg59"
   xmlns="http://www.w3.org/2000/svg"
   xmlns:svg="http://www.w3.org/2000/svg">
  <defs
     id="defs59" />
  <path
     d="m 594,0 c 164.34,0 328.68,0 498,0 0.6057,212.9435 0.6057,212.9435 0.7225,294.43377 0.031,21.30962 0.062,42.61924 0.095,63.92885 0,2.57764 0.01,5.15527 0.012,7.73291 0.064,41.11005 0.1766,82.2198 0.3145,123.32966 0.1414,42.24282 0.2338,84.48547 0.2642,126.72852 0,5.96329 0.01,11.92658 0.014,17.88987 0,1.76053 0,1.76053 0,3.55663 0.018,18.91128 0.087,37.82203 0.1763,56.73309 0.088,19.00122 0.122,38.00192 0.1,57.00334 -0.011,11.29664 0.019,22.59136 0.1095,33.88765 0.056,7.5414 0.058,15.08154 0.015,22.62302 -0.023,4.30104 -0.021,8.59845 0.046,12.89909 0.3667,24.86952 0.3667,24.86952 -3.3308,30.45562 -3.9786,3.81111 -8.3523,5.23521 -13.5425,6.79798 -2.11,1.15681 -4.1965,2.35945 -6.2383,3.63281 -2.0239,1.16538 -4.0487,2.32941 -6.0742,3.49219 -2.2643,1.30337 -4.5286,2.60676 -6.793,3.91016 -1.7119,0.98444 -1.7119,0.98444 -3.4585,1.98877 -5.5224,3.17595 -11.0422,6.3564 -16.561,9.53857 -1.6151,0.93127 -1.6151,0.93127 -3.2629,1.88135 -7.2163,4.16442 -14.4182,8.35288 -21.612,12.55615 -13.73055,8.02268 -27.51078,15.95858 -41.29102,23.89551 C 960.12318,925.56956 948.54447,932.25464 937,939 925.4527,945.74701 913.87098,952.43339 902.28223,959.10889 896.8534,962.2368 891.42678,965.36854 886,968.5 c -6.52233,3.76364 -13.04514,7.52645 -19.57031,11.28516 C 855.93768,985.83055 845.45518,991.8911 835,998 c -13.73055,8.0227 -27.51078,15.9586 -41.29102,23.8955 -11.5858,6.6741 -23.16451,13.3591 -34.70898,20.1045 -13.73055,8.0227 -27.51078,15.9586 -41.29102,23.8955 -11.5858,6.6741 -23.16451,13.3591 -34.70898,20.1045 -13.73055,8.0227 -27.51078,15.9586 -41.29102,23.8955 -11.5858,6.6741 -23.16451,13.3591 -34.70898,20.1045 -13.73055,8.0227 -27.51078,15.9586 -41.29102,23.8955 -11.5858,6.6741 -23.16451,13.3591 -34.70898,20.1045 -13.73055,8.0227 -27.51078,15.9586 -41.29102,23.8955 -11.5858,6.6741 -23.16451,13.3591 -34.70898,20.1045 -11.5473,6.747 -23.12902,13.4334 -34.71777,20.1089 -5.42883,3.1279 -10.85545,6.2596 -16.28223,9.3911 -6.52233,3.7636 -13.04514,7.5264 -19.57031,11.2852 -10.49201,6.0454 -20.97451,12.1059 -31.42969,18.2148 -13.73055,8.0227 -27.51078,15.9586 -41.29102,23.8955 -11.5858,6.6741 -23.16451,13.3591 -34.70898,20.1045 -13.73055,8.0227 -27.51078,15.9586 -41.29102,23.8955 -11.5858,6.6741 -23.16451,13.3591 -34.70898,20.1045 -13.73055,8.0227 -27.51078,15.9586 -41.29102,23.8955 -11.66626,6.7204 -23.32719,13.4496 -34.95898,20.2295 -0.85997,0.5009 -1.71993,1.0018 -2.60596,1.5178 C 111.7365,1416.7179 101.37525,1422.8692 91,1429 c -30.03,0 -60.06,0 -91,0 0,-85.8 0,-171.6 0,-260 10.23,2.64 20.46,5.28 31,8 6.99242,1.7181 13.97837,3.413 21,5 0.90637,0.2072 1.81274,0.4144 2.74658,0.6279 23.02013,5.212 46.31517,8.0252 69.75342,10.5596 0.76999,0.085 1.53999,0.1695 2.33331,0.2569 19.71323,2.1526 39.40771,2.7641 59.22919,2.7431 0.97784,-3e-4 1.95569,-5e-4 2.96317,-8e-4 14.96481,-0.019 29.78293,-0.4431 44.68869,-1.8747 3.45914,-0.3285 6.92037,-0.6162 10.3833,-0.9018 36.83868,-3.1901 73.9741,-9.8692 109.36181,-20.6526 3.00372,-0.8957 6.0219,-1.7338 9.04053,-2.5779 8.37107,-2.3857 16.62255,-5.1024 24.875,-7.8672 0.78636,-0.2629 1.57272,-0.5259 2.3829,-0.7968 C 464.17612,1136.5888 531.90908,1099.191 593,1050 c 0.98871,-0.7915 1.97742,-1.583 2.99609,-2.3984 5.66242,-4.5843 11.10693,-9.3493 16.46875,-14.2813 2.06842,-1.8931 4.15922,-3.7428 6.28516,-5.5703 9.75486,-8.5083 19.08287,-17.4911 28.25,-26.625 1.04015,-1.0333 1.04015,-1.0333 2.10132,-2.0874 3.91182,-3.92362 7.63635,-7.95402 11.25512,-12.14893 2.43638,-2.79973 4.98004,-5.49444 7.51856,-8.20117 4.40726,-4.74249 8.61564,-9.588 12.66797,-14.64063 1.85648,-2.30216 3.73199,-4.57869 5.63281,-6.84375 C 694.90149,946.78137 703.0821,936.04618 711,925 c 0.5775,-0.80309 1.155,-1.60617 1.75,-2.43359 48.0637,-67.05316 83.49349,-142.80013 104.69385,-222.49463 0.57066,-2.12582 1.16172,-4.24524 1.75537,-6.36475 5.48079,-19.83588 9.51166,-40.10134 12.45898,-60.46289 0.3975,-2.60984 0.84708,-5.20888 1.29492,-7.81055 1.10189,-6.57564 1.98448,-13.17339 2.79688,-19.79004 0.24214,-1.95509 0.49588,-3.90873 0.75,-5.8623 3.0278,-24.03223 3.84129,-48.14027 3.76074,-72.33228 -0.0114,-3.45473 -0.005,-6.90916 0.007,-10.36389 C 840.31742,499.31347 839.59128,481.70576 838,464 c -0.14692,-1.71432 -0.29343,-3.42867 -0.43945,-5.14307 C 835.19476,431.64625 831.07214,404.62188 825,378 c -0.31192,-1.38695 -0.62343,-2.774 -0.93457,-4.16113 C 814.73511,332.3532 802.11523,291.95983 785,253 c -0.43989,-1.00531 -0.87979,-2.01062 -1.33301,-3.04639 C 754.36416,183.45533 714.91393,122.7289 666,69 665.21593,68.131091 664.43186,67.262183 663.62402,66.366943 657.09964,59.178128 650.37848,52.222136 643.50122,45.37085 641.79976,43.674803 640.10379,41.973402 638.4082,40.271484 632.77291,34.632754 627.07863,29.164606 621,24 619.39232,22.545545 617.7876,21.087791 616.1875,19.625 610.94452,14.890969 605.49461,10.436965 600,6 c -2.02796,-1.6411211 -4.02646,-3.2931529 -6,-5 0,-0.33 0,-0.66 0,-1 z"
     fill="#fcc200"
     id="path3" />
  <path
     d="m 1092,905 c 0,172.92 0,345.84 0,524 -302.28,0 -604.56,0 -916,0 3.49234,-2.7939 6.29436,-4.8656 10.11328,-6.9609 0.98807,-0.5466 1.97613,-1.0932 2.99414,-1.6563 1.05768,-0.5801 2.11535,-1.1601 3.20508,-1.7578 8.6234,-4.7757 17.19016,-9.6284 25.6875,-14.625 9.14875,-5.3726 18.37405,-10.5908 27.64453,-15.75 7.16901,-3.9996 14.2764,-8.0935 21.35547,-12.25 9.14913,-5.372 18.37403,-10.5908 27.64453,-15.75 7.16901,-3.9996 14.2764,-8.0935 21.35547,-12.25 8.11419,-4.7643 16.27809,-9.4241 24.5,-14 9.15723,-5.0983 18.23693,-10.3131 27.27832,-15.6138 7.62967,-4.469 15.29145,-8.8798 22.97168,-13.2612 0.58432,-0.3334 1.16864,-0.6667 1.77066,-1.0102 2.97126,-1.6948 5.94297,-3.3889 8.91489,-5.0826 5.27538,-3.0069 10.54679,-6.0208 15.81848,-9.0342 2.91516,-1.6663 5.83058,-3.3321 8.74597,-4.998 1.16667,-0.6667 2.33333,-1.3333 3.5,-2 2.33333,-1.3333 4.66667,-2.6667 7,-4 0.57749,-0.33 1.15498,-0.66 1.74997,-1 1.16677,-0.6667 2.33353,-1.3334 3.5003,-2.0001 2.91517,-1.6658 5.8303,-3.3317 8.74534,-4.9977 5.26781,-3.0106 10.53593,-6.0206 15.80567,-9.0278 2.94146,-1.6786 5.88263,-3.3577 8.82372,-5.0369 0.57973,-0.3309 1.15945,-0.6619 1.75674,-1.0029 8.45129,-4.8256 16.88266,-9.6849 25.30576,-14.5596 8.44046,-4.8836 16.91866,-9.692 25.4375,-14.4375 9.11479,-5.0788 18.15255,-10.2745 27.15381,-15.5515 7.62946,-4.469 15.29112,-8.8797 22.97119,-13.261 0.58432,-0.3334 1.16864,-0.6667 1.77066,-1.0102 2.97126,-1.6948 5.94297,-3.3889 8.91489,-5.0826 5.27538,-3.0069 10.54679,-6.0208 15.81848,-9.0342 2.91516,-1.6663 5.83058,-3.3321 8.74597,-4.998 1.16667,-0.6667 2.33333,-1.3333 3.5,-2 2.33333,-1.3333 4.66667,-2.6667 7,-4 0.57749,-0.33 1.15498,-0.66 1.74997,-1 1.16677,-0.6667 2.33353,-1.3334 3.5003,-2.0001 2.91517,-1.6658 5.8303,-3.3317 8.74534,-4.9977 5.26781,-3.0106 10.53593,-6.0206 15.80567,-9.0278 2.94146,-1.6786 5.88263,-3.3577 8.82372,-5.0369 0.57973,-0.3309 1.15945,-0.6619 1.75674,-1.0029 8.45129,-4.8256 16.88266,-9.6849 25.30576,-14.5596 8.44046,-4.8836 16.91866,-9.692 25.4375,-14.4375 9.11479,-5.0788 18.15255,-10.2745 27.15381,-15.5515 7.62946,-4.469 15.29112,-8.8797 22.97119,-13.261 0.58432,-0.3334 1.16864,-0.6667 1.77066,-1.0102 2.97126,-1.6948 5.94297,-3.3889 8.91489,-5.0826 5.27538,-3.0069 10.54679,-6.0208 15.81848,-9.0342 2.91516,-1.6663 5.83058,-3.3321 8.74597,-4.998 1.16667,-0.6667 2.33333,-1.3333 3.5,-2 11.1,-6.3428 22.19999,-12.6857 33.29999,-19.0286 0.59822,-0.3418 1.19645,-0.6836 1.8128,-1.0358 29.82862,-17.045 29.82862,-17.045 32.38233,-18.5042 1.66866,-0.9535 3.33728,-1.9072 5.00586,-2.8608 4.8672,-2.7818 9.73541,-5.5617 14.60449,-8.3401 11.47937,-6.5519 22.94987,-13.1181 34.39453,-19.7305 12.466,-7.20216 24.96361,-14.3483 37.46777,-21.48389 5.26271,-3.00344 10.5234,-6.01041 15.78424,-9.01712 2.91592,-1.66647 5.83196,-3.33272 8.74799,-4.99899 1.16667,-0.66667 2.33333,-1.33333 3.5,-2 11.1,-6.34285 22.2,-12.68571 33.3,-19.02856 1.2098,-0.69134 2.4197,-1.38268 3.6295,-2.07402 1.2086,-0.69061 2.4172,-1.38121 3.6257,-2.07181 2.9725,-1.69852 5.9449,-3.39712 8.9172,-5.09587 5.2609,-3.00659 10.5222,-6.01245 15.7854,-9.0149 0.8911,-0.50853 1.7821,-1.01707 2.7002,-1.54101 1.7074,-0.9744 3.4151,-1.94837 5.1231,-2.92188 4.3017,-2.4557 8.5903,-4.93166 12.8642,-7.43554 0.8804,-0.51458 1.7607,-1.02916 2.6677,-1.55933 1.6776,-0.98202 3.353,-1.96769 5.0259,-2.95752 0.7418,-0.43401 1.4836,-0.86802 2.2478,-1.31519 0.6519,-0.38446 1.3037,-0.76892 1.9754,-1.16503 C 1090,905 1090,905 1092,905 Z"
     fill="#567371"
     id="path4" />
  <path
     d="m 311,273 c 3.40967,4.02748 6.08704,8.28026 8.75,12.8125 0.41121,0.69287 0.82242,1.38574 1.24609,2.09961 1.0047,1.69396 2.00478,3.39065 3.00391,5.08789 0.57967,-0.0909 1.15935,-0.18176 1.75659,-0.27539 2.64305,-0.41211 5.28695,-0.81841 7.93091,-1.22461 0.91201,-0.14309 1.82402,-0.28617 2.76367,-0.43359 0.88623,-0.13535 1.77246,-0.27071 2.68555,-0.41016 0.8117,-0.12568 1.62341,-0.25137 2.45972,-0.38086 2.48889,-0.28517 4.90063,-0.32214 7.40356,-0.27539 -4.14868,4.99969 -8.50962,9.43793 -13.33984,13.78906 -1.94487,2.06575 -1.94487,2.06575 -1.40674,4.54517 0.76194,2.72062 1.7498,5.01387 3.03174,7.52905 0.44795,0.88623 0.8959,1.77246 1.35742,2.68555 0.70286,1.36802 0.70286,1.36802 1.41992,2.76367 0.47244,0.93135 0.94488,1.8627 1.43164,2.82227 1.16324,2.29122 2.33199,4.57944 3.50586,6.86523 -3.29819,0 -4.20237,-0.50929 -6.94141,-2.1875 -0.7483,-0.45117 -1.4966,-0.90234 -2.26757,-1.36719 -0.77666,-0.47695 -1.55333,-0.9539 -2.35352,-1.44531 -1.54059,-0.9414 -3.08346,-1.8791 -4.62891,-2.8125 -1.02396,-0.62842 -1.02396,-0.62842 -2.0686,-1.26953 C 325.03306,320.84446 325.03306,320.84446 323,321 c -1.84456,2.19506 -3.59098,4.399 -5.3125,6.6875 -0.95107,1.25645 -1.90547,2.5104 -2.86328,3.76172 -0.42193,0.56034 -0.84385,1.12068 -1.27857,1.698 -2.02354,2.42563 -4.31199,4.61912 -6.54565,6.85278 0,-8.25 0,-16.5 0,-25 -2.97,-0.66 -5.94,-1.32 -9,-2 -2.51563,-0.78488 -5.0178,-1.61504 -7.5,-2.5 -1.20656,-0.42281 -2.41312,-0.84562 -3.65625,-1.28125 C 284,308 284,308 283,306 c 0.67055,-0.11142 1.34111,-0.22285 2.03198,-0.33765 C 292.39636,304.27098 300.0158,302.7248 306,298 c 4.18254,-7.4978 4.63419,-16.56263 5,-25 z"
     fill="#fbfbfc"
     id="path33" />
  <path
     d="m 247,790 c 2.28053,2.28053 3.65983,3.8441 5.26172,6.50391 0.39639,0.65806 0.79277,1.31613 1.20117,1.99414 0.40412,0.68127 0.80824,1.36254 1.22461,2.06445 0.41572,0.68514 0.83145,1.37027 1.25977,2.07617 C 259,807.74661 259,807.74661 259,810 c 0.6152,-0.21729 1.23041,-0.43458 1.86426,-0.65845 2.79152,-0.97903 5.58843,-1.94167 8.38574,-2.90405 0.96809,-0.34225 1.93617,-0.68449 2.93359,-1.03711 0.93457,-0.31904 1.86914,-0.63809 2.83203,-0.9668 0.85884,-0.2985 1.71768,-0.59699 2.60254,-0.90454 2.54771,-0.56589 3.94499,-0.37997 6.38184,0.47095 -0.75926,0.96422 -1.51852,1.92844 -2.30078,2.92187 -1.00393,1.27603 -2.00784,2.55207 -3.01172,3.82813 -0.49951,0.63422 -0.99902,1.26844 -1.51367,1.92187 -0.9684,1.23135 -1.93227,2.46628 -2.89112,3.70508 -1.02114,1.29208 -2.1017,2.53712 -3.20068,3.76367 -1.26838,1.82213 -1.26838,1.82213 -1.08594,4.08985 1.46927,4.05334 3.72513,7.47832 6.06641,11.08203 0.47244,0.74057 0.94488,1.48113 1.43164,2.24414 1.16173,1.81887 2.33288,3.63173 3.50586,5.44336 -3.54511,1.1817 -4.14018,0.7912 -7.44922,-0.65234 -1.27134,-0.54624 -1.27134,-0.54624 -2.56836,-1.10352 -0.88107,-0.38994 -1.76215,-0.77988 -2.66992,-1.18164 -0.89268,-0.38607 -1.78535,-0.77215 -2.70508,-1.16992 C 263.40108,837.93689 261.199,836.97244 259,836 c -0.27852,0.59023 -0.55704,1.18046 -0.84399,1.78857 -1.79154,3.42718 -4.20137,6.31117 -6.59351,9.33643 -0.49049,0.63293 -0.98098,1.26586 -1.48633,1.91797 -0.4776,0.60715 -0.95519,1.2143 -1.44726,1.83984 -0.4324,0.55059 -0.8648,1.10118 -1.31031,1.66846 C 246,854 246,854 243,856 c 0,-9.57 0,-19.14 0,-29 -1.65,-0.33 -3.3,-0.66 -5,-1 -1.26952,-0.43369 -2.52769,-0.90262 -3.76953,-1.41016 -0.99097,-0.40122 -0.99097,-0.40122 -2.00195,-0.81054 -0.67354,-0.2778 -1.34708,-0.55559 -2.04102,-0.8418 -0.69287,-0.28166 -1.38574,-0.56332 -2.09961,-0.85352 C 226.39032,821.39325 224.69494,820.69716 223,820 c 0,-0.66 0,-1.32 0,-2 2.87404,-0.50612 5.74903,-1.00507 8.625,-1.5 0.80824,-0.14309 1.61648,-0.28617 2.44922,-0.43359 0.79277,-0.13535 1.58555,-0.27071 2.40234,-0.41016 0.72268,-0.12568 1.44536,-0.25137 2.18994,-0.38086 C 241.4267,814.94964 244.22065,815 247,815 c 0,-8.25 0,-16.5 0,-25 z"
     fill="#fafbfc"
     id="path36" />
  <path
     d="m 38,905 c 3.047084,3.80886 5.720179,7.55077 8.25,11.6875 0.363516,0.58072 0.727031,1.16144 1.101562,1.75977 C 50,922.75347 50,922.75347 50,925 c 0.579675,-0.0909 1.159351,-0.18176 1.756592,-0.27539 2.643044,-0.41211 5.28695,-0.81841 7.930908,-1.22461 0.912012,-0.14309 1.824023,-0.28617 2.763672,-0.43359 0.88623,-0.13535 1.772461,-0.27071 2.685547,-0.41016 0.811706,-0.12568 1.623413,-0.25137 2.459717,-0.38086 C 70.085334,921.99022 72.497067,921.95325 75,922 c -3.933672,4.72041 -7.998428,8.982 -12.558594,13.10547 -1.679838,1.75173 -1.679838,1.75173 -1.215332,3.77417 0.892195,2.44439 2.035023,3.95743 3.715332,5.94067 0.583301,0.69996 1.166602,1.39992 1.767578,2.1211 0.611661,0.72058 1.223321,1.44117 1.853516,2.18359 1.213983,1.43644 2.423847,2.87638 3.628906,4.32031 0.538264,0.63438 1.076529,1.26876 1.631104,1.92237 C 75,957 75,957 75,959 68.68609,957.73722 62.829466,955.96526 56.796875,953.70703 53.503613,952.87452 52.140367,952.66316 49,954 c -2.298193,2.26797 -4.198137,4.78983 -6.125,7.375 -1.042817,1.36309 -2.087041,2.72511 -3.132813,4.08594 -0.4552,0.60634 -0.9104,1.21268 -1.379394,1.8374 C 37.006872,968.99142 35.561664,970.49688 34,972 c 0.972836,-8.4347 1.937024,-16.7481 4,-25 -0.947461,-0.23783 -0.947461,-0.23783 -1.914063,-0.48047 C 28.203793,944.46381 20.63512,941.81998 13,939 c 2.253487,-2.25349 3.719745,-2.73649 6.71875,-3.72656 1.397988,-0.46406 1.397988,-0.46406 2.824219,-0.9375 0.97582,-0.31711 1.95164,-0.63422 2.957031,-0.96094 1.46373,-0.48727 1.46373,-0.48727 2.957031,-0.98438 C 35.719308,930 35.719308,930 38,930 c 0,-8.25 0,-16.5 0,-25 z"
     fill="#fafbfc"
     id="path37" />
  <path
     d="m 618,619 c 2.84605,1.42303 3.25663,3.26701 4.60156,6.12891 0.48985,1.03447 0.97969,2.06894 1.48438,3.13476 0.50789,1.08862 1.01578,2.17723 1.53906,3.29883 0.51562,1.09248 1.03125,2.18496 1.5625,3.31055 1.27639,2.70642 2.54694,5.41544 3.8125,8.12695 0.65074,-0.21729 1.30147,-0.43458 1.97192,-0.65845 2.94389,-0.97726 5.89209,-1.94079 8.84058,-2.90405 1.02416,-0.34225 2.04832,-0.68449 3.10352,-1.03711 0.98291,-0.31904 1.96582,-0.63809 2.97851,-0.9668 0.90597,-0.2985 1.81194,-0.59699 2.74536,-0.90454 C 653,636 653,636 656,637 c -0.38334,0.4585 -0.76667,0.91701 -1.16162,1.3894 -1.7444,2.09397 -3.47892,4.1959 -5.21338,6.2981 -0.60328,0.72123 -1.20656,1.44246 -1.82813,2.18555 -0.58007,0.70576 -1.16015,1.41152 -1.75781,2.13867 -0.53415,0.64413 -1.06831,1.28826 -1.61865,1.9519 -1.56834,2.24846 -2.49461,4.46407 -3.42041,7.03638 0.41886,0.49927 0.83773,0.99854 1.26929,1.51294 1.89398,2.26273 3.78115,4.53105 5.66821,6.79956 0.65935,0.78568 1.31871,1.57137 1.99805,2.38086 0.62842,0.75732 1.25683,1.51465 1.90429,2.29492 0.58129,0.6965 1.16258,1.39299 1.76148,2.1106 C 655,675 655,675 656,678 649.07763,676.20127 642.34426,674.13983 635.62891,671.67187 632.76194,670.93916 631.7334,671.0147 629,672 c -1.79906,1.38877 -1.79906,1.38877 -3.45313,3.16016 -0.61874,0.62841 -1.23749,1.25683 -1.875,1.90429 -0.63421,0.65936 -1.26843,1.31871 -1.92187,1.99805 -0.64969,0.66322 -1.29938,1.32645 -1.96875,2.00977 -1.60072,1.63602 -3.19401,3.27864 -4.78125,4.92773 -1.07139,-3.2976 -0.90279,-5.6043 -0.22266,-8.98438 0.1837,-0.93457 0.36739,-1.86914 0.55664,-2.83203 0.19916,-0.96808 0.39832,-1.93617 0.60352,-2.93359 0.19529,-0.98356 0.39059,-1.96711 0.5918,-2.98047 0.48261,-2.42481 0.97309,-4.84776 1.4707,-7.26953 -0.70133,-0.17918 -1.40266,-0.35836 -2.12524,-0.54297 C 608.06062,658.44225 600.56294,655.79332 593,653 c 0,-0.33 0,-0.66 0,-1 2.85305,-0.50721 5.70717,-1.00594 8.5625,-1.5 0.79986,-0.14309 1.59973,-0.28617 2.42383,-0.43359 0.78955,-0.13535 1.5791,-0.27071 2.39258,-0.41016 0.71744,-0.12568 1.43488,-0.25137 2.17407,-0.38086 C 611.68356,648.92307 614.84966,649 618,649 c 0,-9.9 0,-19.8 0,-30 z"
     fill="#f8f9fb"
     id="path38" />
  <path
     d="m 554,828 c 3.2308,3.2308 6.04601,6.13747 8.8125,9.6875 0.60457,0.76699 1.20914,1.53398 1.83203,2.32422 C 566,842 566,842 566,844 c 0.57967,-0.0909 1.15935,-0.18176 1.75659,-0.27539 2.64305,-0.41211 5.28695,-0.81841 7.93091,-1.22461 0.91201,-0.14309 1.82402,-0.28617 2.76367,-0.43359 1.32935,-0.20303 1.32935,-0.20303 2.68555,-0.41016 0.81171,-0.12568 1.62341,-0.25137 2.45972,-0.38086 2.48889,-0.28517 4.90063,-0.32214 7.40356,-0.27539 -1.65864,4.32505 -4.87104,7.09419 -8.125,10.25 -0.56332,0.5543 -1.12664,1.10859 -1.70703,1.67969 -1.38483,1.36136 -2.7758,2.71646 -4.16797,4.07031 1.63953,4.63932 4.06871,8.63856 6.625,12.8125 0.63035,1.03931 0.63035,1.03931 1.27344,2.09961 1.03051,1.698 2.06558,3.39323 3.10156,5.08789 -4.12082,1.37361 -6.64446,-0.2385 -10.4375,-1.875 -5.6483,-2.45901 -5.6483,-2.45901 -11.5625,-4.125 -0.2359,0.66387 -0.4718,1.32773 -0.71484,2.01172 -1.63797,3.80865 -3.70254,7.25948 -5.84766,10.80078 -0.41186,0.69287 -0.82371,1.38574 -1.24805,2.09961 -1.03232,1.7149 -2.10715,3.40408 -3.18945,5.08789 -0.33,0 -0.66,0 -1,0 -0.495,-12.375 -0.495,-12.375 -1,-25 -6.27,-2.64 -12.54,-5.28 -19,-8 1.30543,-2.61087 2.34025,-2.70891 5.03516,-3.72656 1.0926,-0.41887 1.0926,-0.41887 2.20727,-0.84619 0.93062,-0.34724 1.86125,-0.69449 2.82007,-1.05225 4.42406,-1.67062 4.42406,-1.67062 8.9375,-3.375 0.33,-6.93 0.66,-13.86 1,-21 z"
     fill="#f9fafb"
     id="path39" />
  <path
     d="m 661,670 c 3.27439,3.27439 5.30393,5.92927 7.75,9.75 3.04264,4.41405 3.04264,4.41405 8,6.0625 2.03368,-0.27623 2.03368,-0.27623 4.25,-0.8125 2.06206,-0.33606 4.12459,-0.66923 6.1875,-1 0.98356,-0.18562 1.96711,-0.37125 2.98047,-0.5625 2.66616,-0.41188 5.14023,-0.51624 7.83203,-0.4375 -3.92667,4.712 -7.96823,8.93313 -12.55859,13.00781 -1.66096,1.88777 -1.66096,1.88777 -1.44922,4.25391 1.39379,3.787 3.41695,7.02591 5.57031,10.42578 C 694,717.75114 694,717.75114 694,720 c -9.57919,-2.71764 -9.57919,-2.71764 -13.8125,-4.75 -3.67595,-1.44155 -4.53487,-1.60225 -8.1875,-0.25 -2.62002,2.16192 -4.92269,4.59275 -7.25,7.0625 -1.25326,1.30526 -2.50836,2.60875 -3.76563,3.91016 -0.54946,0.58015 -1.09892,1.16031 -1.66503,1.75805 C 658,729 658,729 657,729 c 0.58544,-7.10229 1.65415,-14.00157 3,-21 -9.9,-3.96 -9.9,-3.96 -20,-8 2.09734,-2.09734 3.40303,-2.68848 6.13281,-3.72656 1.08886,-0.41887 1.08886,-0.41887 2.19971,-0.84619 0.92152,-0.34724 1.84304,-0.69449 2.79248,-1.05225 2.92875,-1.11375 5.8575,-2.2275 8.875,-3.375 0.33,-6.93 0.66,-13.86 1,-21 z"
     fill="#fafbfc"
     id="path40" />
  <path
     d="m 623,722 c 3.51978,3.51978 6.09115,6.31052 8.8125,10.3125 0.60457,0.88301 1.20914,1.76602 1.83203,2.67578 0.44731,0.66387 0.89461,1.32774 1.35547,2.01172 0.6152,-0.0961 1.23041,-0.19223 1.86426,-0.29126 2.79406,-0.43186 5.58981,-0.85167 8.38574,-1.27124 0.96809,-0.15147 1.93617,-0.30293 2.93359,-0.45898 0.93457,-0.13858 1.86914,-0.27715 2.83203,-0.41993 0.85884,-0.13092 1.71768,-0.26184 2.60254,-0.39672 C 656,734 656,734 660,735 c -4.95,4.95 -9.9,9.9 -15,15 1.31221,3.28052 2.38327,5.84394 4.16406,8.76953 0.39961,0.66065 0.79922,1.32129 1.21094,2.00195 0.4125,0.67354 0.825,1.34708 1.25,2.04102 0.63035,1.03931 0.63035,1.03931 1.27344,2.09961 1.03051,1.698 2.06558,3.39323 3.10156,5.08789 -4.60736,1.53579 -8.22302,-1.00914 -12.46289,-2.90625 C 638.82057,765.03918 638.82057,765.03918 634,766 c -1.86383,2.15586 -3.53354,4.25764 -5.1875,6.5625 -1.58369,2.1637 -3.18499,4.30603 -4.8125,6.4375 -0.33,0 -0.66,0 -1,0 0,-6.6 0,-13.2 0,-20 -2.13469,-0.58781 -2.13469,-0.58781 -4.3125,-1.1875 C 612.86409,756.07964 607.4665,753.62932 602,751 c 2.09734,-2.09734 3.40303,-2.68848 6.13281,-3.72656 1.08886,-0.41887 1.08886,-0.41887 2.19971,-0.84619 0.92152,-0.34724 1.84304,-0.69449 2.79248,-1.05225 2.92875,-1.11375 5.8575,-2.2275 8.875,-3.375 0.33,-6.6 0.66,-13.2 1,-20 z"
     fill="#fbfcfd"
     id="path41" />
  <path
     d="m 469,815 c 1.05187,0.88688 2.10375,1.77375 3.1875,2.6875 0.64324,0.54141 1.28648,1.08281 1.94922,1.64062 C 476,821 476,821 478.5,823.9375 c 2.40242,2.44696 2.40242,2.44696 5.9375,1.9375 1.17563,-0.28875 2.35125,-0.5775 3.5625,-0.875 1.9982,-0.34393 3.99798,-0.679 6,-1 -0.52852,1.02481 -1.05703,2.04961 -1.60156,3.10547 -0.67542,1.36021 -1.34985,2.72091 -2.02344,4.08203 -0.52594,1.0103 -0.52594,1.0103 -1.0625,2.04102 -1.52335,3.12286 -2.47038,5.07485 -1.6875,8.52929 1.26104,2.05635 2.53032,4.01738 4,5.92969 C 494,850.78324 494,850.78324 494,853 c -0.83531,-0.19916 -0.83531,-0.19916 -1.6875,-0.40234 C 487.21413,851.4178 482.20213,850.5675 477,850 c -0.49371,0.79406 -0.98742,1.58812 -1.49609,2.40625 -0.64067,1.02094 -1.28133,2.04187 -1.94141,3.09375 -0.63809,1.02094 -1.27617,2.04187 -1.93359,3.09375 -0.53754,0.79406 -1.07508,1.58812 -1.62891,2.40625 -0.33,0 -0.66,0 -1,0 0,-5.61 0,-11.22 0,-17 -1.98,-0.66 -3.96,-1.32 -6,-2 -1.80815,-0.84041 -3.60128,-1.71417 -5.375,-2.625 -0.87398,-0.44602 -1.74797,-0.89203 -2.64844,-1.35156 C 454.3243,837.6857 453.67203,837.34797 453,837 c 0.33,-0.66 0.66,-1.32 1,-2 2.61719,-0.85156 2.61719,-0.85156 5.875,-1.625 1.60488,-0.39059 1.60488,-0.39059 3.24219,-0.78906 C 466,832 466,832 469,832 c 0,-5.61 0,-11.22 0,-17 z"
     fill="#fbfcfc"
     id="path42" />
  <path
     d="m 209,624 c 3.27275,3.27275 5.54738,6.14588 8,10 5.78097,-0.63065 11.34437,-1.65155 17,-3 -1.42845,4.93463 -3.62516,9.10639 -6.17188,13.53516 -1.08205,2.45837 -1.08205,2.45837 -0.13281,4.97265 1.28401,2.45269 2.56382,4.89645 3.92969,7.30469 0.44602,0.7902 0.89203,1.58039 1.35156,2.39453 0.33774,0.59168 0.67547,1.18336 1.02344,1.79297 -0.83531,-0.19916 -0.83531,-0.19916 -1.6875,-0.40234 C 227.21413,659.4178 222.20213,658.5675 217,658 c -0.49371,0.72187 -0.98742,1.44375 -1.49609,2.1875 -0.64067,0.92813 -1.28133,1.85625 -1.94141,2.8125 -0.63809,0.92813 -1.27617,1.85625 -1.93359,2.8125 -0.53754,0.72187 -1.07508,1.44375 -1.62891,2.1875 -0.33,0 -0.66,0 -1,0 0,-5.28 0,-10.56 0,-16 -1.32,-0.4125 -2.64,-0.825 -4,-1.25 -4.58985,-1.52025 -8.72661,-3.49676 -13,-5.75 0.33,-0.66 0.66,-1.32 1,-2 2.58203,-0.85156 2.58203,-0.85156 5.8125,-1.625 1.58748,-0.39059 1.58748,-0.39059 3.20703,-0.78906 C 205,640 205,640 209,640 c 0,-5.28 0,-10.56 0,-16 z"
     fill="#fafbfc"
     id="path43" />
  <path
     d="m 537,777 c 2.31739,3.08986 3.99373,5.71712 5.6875,9.125 0.65549,1.30324 0.65549,1.30324 1.32422,2.63281 C 545,791 545,791 545,793 c 1.35545,-0.34225 1.35545,-0.34225 2.73828,-0.69141 1.17949,-0.28746 2.35899,-0.57492 3.57422,-0.87109 1.75764,-0.43506 1.75764,-0.43506 3.55078,-0.87891 C 558,790 558,790 561,791 c -3.3,3.3 -6.6,6.6 -10,10 1.41999,3.54997 2.61216,6.1873 4.625,9.3125 0.44602,0.69738 0.89203,1.39477 1.35156,2.11328 0.33774,0.51949 0.67547,1.03899 1.02344,1.57422 -6.878,-0.96292 -6.878,-0.96292 -9.87891,-1.875 -3.33548,-0.47039 -3.33548,-0.47039 -6.07812,2.18359 -0.97025,1.02585 -1.92177,2.06969 -2.85547,3.12891 -1.72127,1.86187 -3.45158,3.71421 -5.1875,5.5625 -0.33,0 -0.66,0 -1,0 0.0554,-1.14598 0.11086,-2.29195 0.16797,-3.47266 0.40087,-8.8172 0.40087,-8.8172 -3.6836,-16.14453 -2.99532,-1.85913 -2.99532,-1.85913 -6.11328,-3.2539 C 522.58863,799.75637 521.80617,799.38383 521,799 c 0,-0.66 0,-1.32 0,-2 1.24663,-0.50834 2.49749,-1.00631 3.75,-1.5 0.69609,-0.27844 1.39219,-0.55688 2.10937,-0.84375 C 529,794 529,794 533,794 c 1.32,-5.61 2.64,-11.22 4,-17 z"
     fill="#fafbfc"
     id="path44" />
  <path
     d="m 396,832 c 8,8 8,8 8,12 0.97582,-0.22816 1.95164,-0.45633 2.95703,-0.69141 1.90846,-0.43119 1.90846,-0.43119 3.85547,-0.87109 1.26457,-0.29004 2.52914,-0.58008 3.83203,-0.87891 C 418,841 418,841 421,842 c -3.63,3.63 -7.26,7.26 -11,11 2.31,5.28 4.62,10.56 7,16 -3.54997,-1.41999 -6.1873,-2.61216 -9.3125,-4.625 -0.69738,-0.44602 -1.39477,-0.89203 -2.11328,-1.35156 -0.77924,-0.5066 -0.77924,-0.5066 -1.57422,-1.02344 -0.2359,0.53109 -0.4718,1.06219 -0.71484,1.60937 -1.66553,3.09819 -3.73016,5.84406 -5.84766,8.64063 -0.41186,0.5543 -0.82371,1.10859 -1.24805,1.67969 -1.03638,1.37732 -2.10984,2.7266 -3.18945,4.07031 -0.33,0 -0.66,0 -1,0 0,-6.93 0,-13.86 0,-21 -4.455,-0.99 -4.455,-0.99 -9,-2 -0.99,-0.66 -1.98,-1.32 -3,-2 1.62327,-0.67087 3.24868,-1.33657 4.875,-2 0.90492,-0.37125 1.80984,-0.7425 2.74219,-1.125 C 390,849 390,849 392,849 c 1.32,-5.61 2.64,-11.22 4,-17 z"
     fill="#f9f9fb"
     id="path45" />
  <path
     d="m 452,889 c 2.75602,2.75602 4.00873,4.63941 5.6875,8.0625 0.65549,1.31678 0.65549,1.31678 1.32422,2.66016 C 460,902 460,902 460,904 c 5.61,-1.32 11.22,-2.64 17,-4 -1.56136,3.90341 -2.2486,5.50749 -4.75,8.4375 -2.09438,2.81314 -2.09438,2.81314 -1.875,6.3125 0.53625,1.0725 1.0725,2.145 1.625,3.25 0.87817,1.95691 1.75293,3.91536 2.625,5.875 0.78874,1.70969 1.57943,3.41848 2.375,5.125 -4.36324,-1.30897 -8.12993,-3.05376 -12.07031,-5.29297 C 462.43653,922.79355 461.41194,922.89272 459,924 c -1.74373,2.06733 -1.74373,2.06733 -3.1875,4.5625 -0.91873,1.4909 -1.85135,2.97359 -2.8125,4.4375 -0.33,0 -0.66,0 -1,0 0,-5.28 0,-10.56 0,-16 -2.59875,-0.43313 -2.59875,-0.43313 -5.25,-0.875 -3.61716,-0.60286 -6.5499,-1.31161 -9.75,-3.125 3.2001,-1.81339 6.13284,-2.52214 9.75,-3.125 1.7325,-0.28875 3.465,-0.5775 5.25,-0.875 0,-6.6 0,-13.2 0,-20 z"
     fill="#fafbfc"
     id="path48" />
  <path
     d="m 593,774 c 2.35337,3.13783 3.99684,5.7773 5.6875,9.25 0.65549,1.33805 0.65549,1.33805 1.32422,2.70312 0.4892,1.01321 0.4892,1.01321 0.98828,2.04688 0.97582,-0.22816 1.95164,-0.45633 2.95703,-0.69141 1.90846,-0.43119 1.90846,-0.43119 3.85547,-0.87109 1.26457,-0.29004 2.52914,-0.58008 3.83203,-0.87891 C 615,785 615,785 618,786 c -0.52852,0.73605 -1.05703,1.47211 -1.60156,2.23047 -0.66774,0.97582 -1.33547,1.95164 -2.02344,2.95703 -0.67289,0.96293 -1.34578,1.92586 -2.03906,2.91797 -1.64675,2.78173 -1.64675,2.78173 -0.71094,5.48828 1.29715,2.27001 2.58422,4.52057 4,6.71875 0.44602,0.69738 0.89203,1.39477 1.35156,2.11328 0.33774,0.51949 0.67547,1.03899 1.02344,1.57422 -1.08668,-0.19916 -1.08668,-0.19916 -2.19531,-0.40234 -0.9668,-0.1766 -1.9336,-0.35321 -2.92969,-0.53516 -0.95133,-0.17402 -1.90266,-0.34805 -2.88281,-0.52734 C 606.99842,807.99972 604.00082,807.4942 601,807 c -0.49371,0.79406 -0.98742,1.58812 -1.49609,2.40625 -0.64067,1.02094 -1.28133,2.04187 -1.94141,3.09375 -0.63809,1.02094 -1.27617,2.04187 -1.93359,3.09375 -0.53754,0.79406 -1.07508,1.58812 -1.62891,2.40625 -0.33,0 -0.66,0 -1,0 0,-5.28 0,-10.56 0,-16 -1.32,-0.28875 -2.64,-0.5775 -4,-0.875 -4.3543,-0.96609 -8.67778,-2.0248 -13,-3.125 4.98586,-2.78337 10.48491,-3.68118 16,-5 0.33,-6.27 0.66,-12.54 1,-19 z"
     fill="#fafafc"
     id="path50" />
  <path
     d="m 273,675 c 7,8.75 7,8.75 7,11 5.61,-0.99 11.22,-1.98 17,-3 -2,5 -2,5 -4.1875,8 -2.06295,2.7517 -2.06295,2.7517 -1.61719,5.33203 0.92733,3.0746 2.26297,5.57558 3.86719,8.35547 C 298,709.79529 298,709.79529 298,712 c -4.43436,-1.69269 -8.52348,-3.82346 -12.69531,-6.07422 -2.40105,-1.25314 -2.40105,-1.25314 -5.30469,0.0742 -1.63816,2.08946 -1.63816,2.08946 -3.125,4.5625 -0.93641,1.49314 -1.88919,2.9765 -2.875,4.4375 -0.33,0 -0.66,0 -1,0 0,-5.28 0,-10.56 0,-16 -1.32,-0.12375 -2.64,-0.2475 -4,-0.375 -4.47793,-0.48966 -8.65743,-1.44066 -13,-2.625 2.53605,-2.53605 4.46877,-2.7925 7.9375,-3.625 1.59135,-0.39059 1.59135,-0.39059 3.21484,-0.78906 C 270,691 270,691 273,691 c 0,-5.28 0,-10.56 0,-16 z"
     fill="#fafafc"
     id="path51" />
  <path
     d="m 695,606 c 2.62895,3.94343 3.05928,7.36359 4,12 5.61,-1.32 11.22,-2.64 17,-4 -1.54942,3.87355 -2.27849,5.55641 -4.75,8.5 -1.3347,1.74017 -1.3347,1.74017 -2.25,3.5 0.57989,3.39649 2.20672,5.31009 4.125,8.1875 C 715,637 715,637 715,639 c -0.73605,-0.14437 -1.47211,-0.28875 -2.23047,-0.4375 -0.97582,-0.18562 -1.95164,-0.37125 -2.95703,-0.5625 -0.96293,-0.18562 -1.92586,-0.37125 -2.91797,-0.5625 C 702.94818,636.78266 702.94818,636.78266 699,637 c -2.09452,2.18053 -2.09452,2.18053 -3.75,5 -1.07022,1.67512 -2.15009,3.34423 -3.25,5 -0.33,0 -0.66,0 -1,0 0,-5.28 0,-10.56 0,-16 -1.42313,-0.30938 -2.84625,-0.61875 -4.3125,-0.9375 -2.64267,-0.57449 -5.11657,-1.20552 -7.6875,-2.0625 0,-0.66 0,-1.32 0,-2 1.43554,-0.5056 2.87352,-1.00428 4.3125,-1.5 0.80051,-0.27844 1.60102,-0.55688 2.42578,-0.84375 C 688,623 688,623 691,623 c 0.20496,-1.1434 0.40992,-2.2868 0.62109,-3.46484 0.27193,-1.49093 0.54408,-2.98181 0.81641,-4.47266 0.13471,-0.75475 0.26941,-1.50949 0.4082,-2.28711 1.04102,-5.66211 1.04102,-5.66211 2.1543,-6.77539 z"
     fill="#f9f9fb"
     id="path53" />
  <path
     d="m 153,704 c 2.43379,2.43379 3.94249,4.31059 5.6875,7.1875 0.65549,1.07314 0.65549,1.07314 1.32422,2.16797 0.4892,0.81404 0.4892,0.81404 0.98828,1.64453 4.34485,-0.60828 8.67392,-1.27082 13,-2 -0.52852,0.73605 -1.05703,1.47211 -1.60156,2.23047 -0.66774,0.97582 -1.33547,1.95164 -2.02344,2.95703 -0.67289,0.96293 -1.34578,1.92586 -2.03906,2.91797 -1.64747,2.78599 -1.64747,2.78599 -0.71094,5.51953 1.24824,2.15605 2.512,4.19044 4,6.1875 0.78375,1.05187 1.5675,2.10375 2.375,3.1875 -0.495,0.99 -0.495,0.99 -1,2 -0.61488,-0.21656 -1.22977,-0.43313 -1.86328,-0.65625 -0.80824,-0.27844 -1.61649,-0.55688 -2.44922,-0.84375 -0.80051,-0.27844 -1.60102,-0.55688 -2.42578,-0.84375 C 163.91231,734.86067 163.91231,734.86067 161,735 c -1.89177,2.45764 -1.89177,2.45764 -3.625,5.5 -1.10462,1.84569 -2.22439,3.68263 -3.375,5.5 -0.33,0 -0.66,0 -1,0 0,-5.61 0,-11.22 0,-17 -2.64,-0.33 -5.28,-0.66 -8,-1 -2.70337,-0.57155 -5.32882,-1.2845 -8,-2 0.33,-0.66 0.66,-1.32 1,-2 2.61719,-0.85156 2.61719,-0.85156 5.875,-1.625 1.60488,-0.39059 1.60488,-0.39059 3.24219,-0.78906 C 150,721 150,721 153,721 c 0,-5.61 0,-11.22 0,-17 z"
     fill="#f6f7f9"
     id="path54" />
  <path
     d="m 567,896 c 2.92252,3.65315 5.47031,7.11512 8,11 4.02993,-0.55313 8.02023,-1.15581 12,-2 -1.98,2.31 -3.96,4.62 -6,7 1.55702,4.67106 4.08447,8.08706 7,12 -0.33,0.66 -0.66,1.32 -1,2 -0.60328,-0.22816 -1.20656,-0.45633 -1.82813,-0.69141 -0.79921,-0.28746 -1.59843,-0.57492 -2.42187,-0.87109 -0.78891,-0.29004 -1.57781,-0.58008 -2.39063,-0.87891 C 577.6271,922.91171 576.56128,922.85728 574,924 c -2.66073,2.29742 -2.66073,2.29742 -5.25,5.0625 -0.89203,0.9191 -1.78406,1.8382 -2.70313,2.78516 -1.0132,1.06541 -1.0132,1.06541 -2.04687,2.15234 -1.29065,-3.87195 -0.22324,-6.44233 0.9375,-10.1875 0.19529,-0.6542 0.39059,-1.3084 0.5918,-1.98242 0.48253,-1.61235 0.9756,-3.22154 1.4707,-4.83008 -0.99902,-0.19336 -1.99805,-0.38672 -3.02734,-0.58594 -1.29036,-0.26039 -2.58071,-0.52078 -3.91016,-0.78906 -1.93166,-0.38285 -1.93166,-0.38285 -3.90234,-0.77344 C 555.1173,914.57055 554.07445,914.28953 553,914 c -0.33,-0.66 -0.66,-1.32 -1,-2 1.74817,-0.50637 3.49862,-1.00485 5.25,-1.5 0.97453,-0.27844 1.94906,-0.55688 2.95312,-0.84375 C 563,909 563,909 567,909 c 0,-4.29 0,-8.58 0,-13 z"
     fill="#f5f6f9"
     id="path55" />
  <path
     d="m 307,480 c 2.95183,2.95183 3.08664,5.95512 4,10 0.53109,-0.22816 1.06219,-0.45633 1.60937,-0.69141 0.70641,-0.28746 1.41282,-0.57492 2.14063,-0.87109 0.69609,-0.29004 1.39219,-0.58008 2.10937,-0.87891 C 319,487 319,487 323,488 c -1.98,1.98 -3.96,3.96 -6,6 1.08413,3.07171 2.30498,5.45747 4.125,8.1875 C 323,505 323,505 323,507 c -1.21688,-0.33 -2.43375,-0.66 -3.6875,-1 -4.6211,-1.22797 -4.6211,-1.22797 -9.3125,-1 -2.51547,1.8179 -4.7722,3.84282 -7,6 0.009,-0.81984 0.0181,-1.63969 0.0273,-2.48438 0.10644,-6.10591 0.10644,-6.10591 -2.65234,-11.20312 -2.12591,-1.22977 -2.12591,-1.22977 -5.375,-2.3125 2.50516,-2.50516 4.61068,-3.05099 8,-4 1.32,0 2.64,0 4,0 0,-3.63 0,-7.26 0,-11 z"
     fill="#f5f6f9"
     id="path56" />
  <path
     d="m 209,740 c 1.7084,1.63412 2.93453,2.86906 4,5 2.64,-0.66 5.28,-1.32 8,-2 -0.52594,1.02094 -0.52594,1.02094 -1.0625,2.0625 -1.53584,4.81231 -0.15783,9.17092 1.0625,13.9375 -0.56848,-0.25137 -1.13695,-0.50273 -1.72266,-0.76172 -4.59195,-1.90881 -4.59195,-1.90881 -9.43359,-1.76953 -2.12129,0.89921 -2.12129,0.89921 -4.84375,2.53125 1.875,-5.75 1.875,-5.75 3,-8 -2.31,0 -4.62,0 -7,0 0.33,-0.66 0.66,-1.32 1,-2 2.31406,-0.73076 4.64829,-1.40138 7,-2 0,-2.31 0,-4.62 0,-7 z"
     fill="#f3f4f7"
     id="path57" />
  <path
     d="m 307,1008 c 1.5056,1.9638 2.89132,3.7826 4,6 2.64,-0.66 5.28,-1.32 8,-2 -0.52594,1.0828 -0.52594,1.0828 -1.0625,2.1875 -1.0533,3.1599 -0.87347,4.6642 0.0625,7.8125 0.33,0.66 0.66,1.32 1,2 -0.92232,0.073 -0.92232,0.073 -1.86328,0.1484 -0.80824,0.075 -1.61649,0.1496 -2.44922,0.2266 -0.80051,0.07 -1.60102,0.1392 -2.42578,0.2109 -2.53396,0.3097 -2.53396,0.3097 -5.26172,2.4141 0,-2.64 0,-5.28 0,-8 -1.70156,-0.4331 -1.70156,-0.4331 -3.4375,-0.875 -1.17563,-0.3713 -2.35125,-0.7425 -3.5625,-1.125 -0.33,-0.66 -0.66,-1.32 -1,-2 2.64,0 5.28,0 8,0 0,-2.31 0,-4.62 0,-7 z"
     fill="#f6f7f9"
     id="path59" />
</svg>
